SplineFontDB: 1.0
FontName: Tuffy-Italic
FullName: Tuffy Italic
FamilyName: Tuffy
Weight: Regular
Copyright: Created by Thatcher Ulrich (http://tulrich.com) with FontForge 1.0 (http://fontforge.sf.net)\n\nThis font, including hint instructions, has been donated to the Public Domain.  Do whatever you want with it.\n
Comments: 2004-9-1: Created.
Version: 001.100
DefaultBaseFilename: Tuffy_Italic
ItalicAngle: -12
UnderlinePosition: -100
UnderlineWidth: 50
Ascent: 1597
Descent: 451
XUID: [1021 745 1046372284 1663508]
FSType: 0
OS2Version: 0
OS2_WeightWidthSlopeOnly: 0
OS2_UseTypoMetrics: 0
CreationTime: 1166531129
ModificationTime: 1171227088
PfmFamily: 33
TTFWeight: 500
TTFWidth: 5
LineGap: 93
VLineGap: 0
Panose: 2 11 6 3 6 1 0 0 0 0
OS2TypoAscent: 0
OS2TypoAOffset: 1
OS2TypoDescent: 0
OS2TypoDOffset: 1
OS2TypoLinegap: 0
OS2WinAscent: 0
OS2WinAOffset: 1
OS2WinDescent: 0
OS2WinDOffset: 1
HheadAscent: 0
HheadAOffset: 1
HheadDescent: 0
HheadDOffset: 1
OS2SubXSize: 0
OS2SubYSize: 2
OS2SubXOff: -16560
OS2SubYOff: 0
OS2SupXSize: -25944
OS2SupYSize: -27176
OS2SupXOff: -16376
OS2SupYOff: 1
OS2StrikeYSize: 12312
OS2StrikeYPos: -16224
OS2Vendor: 'PfEd'
ScriptLang: 2
 1 latn 1 dflt 
 1 DFLT 1 dflt 
TtfTable: cvt  4
!$MDh
EndTtf
LangName: 1053 "" "" "MagerKursiv" 
LangName: 1034 "" "" "NormalCursiva" 
LangName: 1049 "" "" "+BB4EMQRLBEcEPQRLBDkEGgRDBEAEQQQ4BDIA" 
LangName: 1044 "" "" "VanligKursiv" 
LangName: 1040 "" "" "NormaleCursivo" 
LangName: 1038 "" "" "Norm+AOEA-lD+AVEA-lt" 
LangName: 1031 "" "" "StandardKursiv" 
LangName: 1036 "" "" "NormalItalique" 
LangName: 1043 "" "" "RegelmatigCursief" 
LangName: 1033 "" "" "" "" "" "" "" "" "" "Thatcher Ulrich" "" "http://tulrich.com+AAoA" "http://tulrich.com+AAoA" "Public Domain+AAoA" 
Encoding: Custom
UnicodeInterp: none
NameList: Adobe Glyph List
DisplaySize: -48
AntiAlias: 1
FitToEm: 1
WinInfo: 51 17 9
BeginPrivate: 7
BlueValues 27 [-32 2 1069 1101 1450 1491]
OtherBlues 0 
StdHW 4 [66]
StdVW 5 [70]

StemSnapH 6 [66] 


StartChar: exclam
Encoding: 1 33 1
Width: 421
Flags: HMW
Fore
375 440 m 1
 367 406 333 381 304 381 c 1
 276.475 381.86 256.349 399.737 256.349 426.357 c 0
 256.349 430.686 256.881 435.245 258 440 c 1
 418 1389 l 1
 430 1442 485 1483 536 1483 c 1
 583.379 1483 619.57 1448.64 619.57 1406.34 c 0
 619.57 1401.33 619.061 1396.2 618 1391 c 1
 375 440 l 1
EndSplineSet
Refer: 14 46 N 1 0 0 1 0 0 2
EndChar
StartChar: quotedbl
Encoding: 2 34 2
Width: 690
Flags: HMW
Fore
674 1092 m 1
 734 1466 l 1
 744 1516 786 1542 822 1542 c 0
 823 1542 824 1542 826 1542 c 0
 851.756 1542 885.273 1530.09 885.273 1482.46 c 0
 885.273 1477.33 883.809 1471.66 883 1466 c 1
 783 1092 l 1
 775 1061 742 1044 718 1044 c 0
 695.505 1044 673.967 1055.48 673.967 1081.24 c 0
 673.967 1082.32 674 1083.39 674 1092 c 1
382 1092 m 2
 441 1466 l 1
 451 1516 493 1542 529 1542 c 0
 530 1542 531 1542 533 1542 c 0
 565 1542 592 1524 593 1486 c 0
 593 1480 592 1473 591 1466 c 1
 490 1092 l 1
 482 1061 449 1044 425 1044 c 0
 402.505 1044 380.967 1055.48 380.967 1081.24 c 0
 380.967 1088.75 381.334 1090 382 1092 c 2
EndSplineSet
EndChar
StartChar: numbersign
Encoding: 3 35 3
Width: 1589
Flags: HMW
Fore
1085 547 m 0
 1157 885 l 0
 815 885 l 0
 743 547 l 0
 1085 547 l 0
1204 406 m 0
 1129 53 l 1
 980 53 l 1
 1055 406 l 0
 713 406 l 0
 638 53 l 1
 488 53 l 1
 563 406 l 0
 215 406 l 1
 245 547 l 1
 593 547 l 0
 665 885 l 0
 317 885 l 1
 347 1024 l 1
 695 1024 l 0
 775 1403 l 1
 925 1403 l 1
 845 1024 l 0
 1187 1024 l 0
 1267 1403 l 1
 1416 1403 l 1
 1336 1024 l 0
 1697 1024 l 1
 1667 885 l 1
 1306 885 l 0
 1234 547 l 0
 1595 547 l 1
 1565 406 l 1
 1204 406 l 0
EndSplineSet
KernsSLIFO: 4 -55 0 0
EndChar
StartChar: dollar
Encoding: 4 36 4
Width: 1017
Flags: HMW
Back
434.176 1495.04 m 1
 581.632 1495.04 l 1
 581.632 -114.688 l 1
 434.176 -114.688 l 1
 434.176 1495.04 l 1
24.5762 266.24 m 1
 159.744 346.112 l 1
 249.856 206.848 321.538 112.64 507.906 112.64 c 1
 690.178 112.64 811.008 219.136 811.008 376.832 c 1
 811.008 565.248 632.037 623.215 454.656 671.744 c 0
 299.418 714.216 92.1602 780.288 83.9678 1034.24 c 0
 76.0439 1279.87 274.432 1413.12 507.904 1413.12 c 1
 747.521 1413.12 841.729 1306.62 935.934 1167.36 c 1
 811.008 1087.49 l 1
 751.616 1189.89 667.648 1271.81 507.904 1271.81 c 1
 354.304 1271.81 245.76 1198.08 245.76 1034.24 c 0
 245.76 843.776 419.396 838.961 565.246 782.336 c 0
 751.104 710.183 974.848 673.792 972.8 376.832 c 0
 971.078 126.982 778.24 -26.624 507.904 -28.6719 c 1
 284.672 -26.624 157.696 57.3438 24.5762 266.24 c 1
EndSplineSet
Fore
780 1537 m 1
 909 1537 l 1
 882 1411 l 1
 1032 1399 1125 1305 1184 1168 c 1
 1042 1088 l 1
 1018 1165 955 1249 851 1264 c 1
 747 775 l 1
 898.276 712.041 1064.84 670.492 1064.84 476.515 c 0
 1064.84 448.658 1061.41 417.658 1054 383 c 0
 1009 168 825 0 576 -26 c 1
 549 -155 l 1
 422 -155 l 1
 449 -26 l 1
 231 -8 155 94 82 266 c 1
 234 346 l 1
 280 237 327 133 480 117 c 1
 598 672 l 1
 430.69 714.478 297.197 789.27 297.197 963.478 c 0
 297.197 990.227 300.345 1019.32 307 1051 c 0
 353 1264 549 1397 752 1409 c 1
 780 1537 l 1
629 817 m 1
 725 1270 l 1
 601 1255 496 1174 469 1051 c 0
 463.824 1026.53 461.379 1004.74 461.379 985.28 c 0
 461.379 880.65 532.038 843.138 629 817 c 1
716 630 m 1
 607 119 l 1
 757 143 862 242 892 383 c 0
 895.678 399.704 897.548 415.963 897.548 431.692 c 0
 897.548 518.599 840.472 589.356 716 630 c 1
EndSplineSet
EndChar
StartChar: percent
Encoding: 5 37 5
Width: 1402
Flags: HMW
Fore
970 373 m 0
 967 359 966 346 966 334 c 0
 966 267 1007 219 1079 219 c 0
 1159 219 1240 283 1259 373 c 0
 1261 383 1263 394 1262 404 c 0
 1262 470 1216 522 1143 522 c 0
 1065 522 987 453 970 373 c 0
841 373 m 0
 873 522 1020 643 1171 643 c 0
 1303 643 1394 551 1394 429 c 0
 1394 411 1392 392 1388 373 c 0
 1356 223 1208 104 1056 104 c 0
 924 104 835 194 835 316 c 0
 835 335 837 353 841 373 c 0
460 1077 m 0
 457 1064 456 1051 456 1039 c 0
 457 972 498 924 571 924 c 0
 651 924 732 987 751 1077 c 0
 753 1088 754 1098 755 1109 c 0
 755 1174 709 1227 636 1227 c 0
 558 1227 477 1157 460 1077 c 0
333 1077 m 0
 365 1227 512 1348 664 1348 c 0
 796 1348 886 1256 886 1133 c 0
 886 1115 884 1096 880 1077 c 0
 848 928 700 809 549 809 c 0
 417 809 327 899 327 1021 c 0
 327 1039 329 1058 333 1077 c 0
453 137 m 1
 303 137 l 1
 1275 1319 l 0
 1419 1319 l 1
 453 137 l 1
EndSplineSet
EndChar
StartChar: ampersand
Encoding: 6 38 6
Width: 1241
Flags: HMW
Back
1026.05 251.904 m 13xd0
 870.4 299.008 l 21
 819.198 188.416 700.414 112.64 591.87 112.64 c 5
 413.696 112.64 260.096 229.376 260.096 423.936 c 4xd0
 260.096 624.64 428.585 731.136 587.776 731.136 c 6
 665.6 731.136 l 5
 665.6 856.064 l 5
 567.296 856.064 l 4
 442.368 856.064 327.68 962.561 327.68 1116.16 c 4
 327.68 1253.38 446.464 1357.82 569.344 1357.82 c 6
 575.488 1357.82 l 4
 686.08 1357.82 768 1294.34 808.958 1200.13 c 13
 946.176 1263.62 l 21
 876.544 1400.83 737.28 1497.09 569.344 1497.09 c 4
 368.64 1497.09 169.984 1343.49 169.984 1116.16 c 4xe0
 169.984 940.032 284.672 829.44 352.256 794.624 c 5
 256.739 765.747 102.4 622.592 102.4 423.936 c 4
 102.4 159.744 317.44 -28.6719 591.872 -28.6719 c 5
 747.521 -28.6719 948.224 71.6797 1026.05 251.904 c 13xd0
EndSplineSet
Fore
1066 1200 m 17
 1039 1292 989 1352 854 1352 c 1
 725 1352 598 1260 568 1120 c 0
 564.172 1101.85 562.372 1084.48 562.372 1067.96 c 0
 562.372 950.756 653.076 877 753 877 c 2
 854 877 l 1
 824 735 l 1
 727 735 l 2
 541 735 392 631 349 430 c 0
 343.382 403.476 340.751 378.471 340.751 355.041 c 0
 340.751 199.155 457.207 113 585 113 c 0
 755 113 906 256 939 408 c 1
 744 408 l 1
 773 547 l 1
 1275 547 l 1
 1245 406 l 1
 1104 406 l 1
 1069 238 873 -29 555 -29 c 0
 342.709 -29 181.208 125.678 181.208 337.824 c 0
 181.208 367.513 184.371 398.327 191 430 c 0
 239 655 432 791 538 813 c 1
 465.336 846.855 400.854 919.574 400.854 1038.48 c 0
 400.854 1063.57 403.726 1090.72 410 1120 c 0
 450 1309 643 1493 884 1493 c 0
 1069 1493 1178 1389 1215 1266 c 9
 1066 1200 l 17
EndSplineSet
EndChar
StartChar: quotesingle
Encoding: 7 39 7
Width: 382
Flags: HMW
Fore
382 1092 m 2
 441 1466 l 1
 451 1516 493 1542 529 1542 c 0
 530 1542 531 1542 533 1542 c 0
 565 1542 592 1524 593 1486 c 0
 593 1480 592 1473 591 1466 c 1
 490 1092 l 1
 482 1061 449 1044 425 1044 c 0
 402.505 1044 380.967 1055.48 380.967 1081.24 c 0
 380.967 1088.75 381.334 1090 382 1092 c 2
EndSplineSet
EndChar
StartChar: parenleft
Encoding: 8 40 8
Width: 548
Flags: HMW
Fore
261 -84 m 1
 199.656 55.4774 163.329 225.81 163.329 414.344 c 0
 163.329 517.781 174.264 626.696 198 739 c 0
 253 997 398 1303 608 1550 c 1
 786 1550 l 1
 544 1282 405 997 348 729 c 0
 328.936 638.742 320.342 548.927 320.342 461.698 c 0
 320.342 256.094 368.086 64.8491 439 -84 c 1
 261 -84 l 1
EndSplineSet
EndChar
StartChar: parenright
Encoding: 9 41 9
Width: 536
Flags: HMW
Fore
248 -84 m 1
 72 -84 l 1
 298 168 453 465 509 727 c 0
 527.343 813.602 535.739 902.916 535.739 991.381 c 0
 535.739 1197.11 490.329 1398.25 419 1550 c 1
 595 1550 l 1
 654.651 1410.81 692.337 1228.58 692.337 1032.7 c 0
 692.337 933.042 682.582 829.85 661 727 c 0
 602 453 463 164 248 -84 c 1
EndSplineSet
EndChar
StartChar: asterisk
Encoding: 10 42 10
Width: 913
Flags: HMW
Fore
572 518 m 1
 411 294 l 2
 398 275 372 254 341 254 c 0
 328 254 315 257 302 266 c 0
 284.2 277.327 275.565 294.546 275.565 313.949 c 0
 275.565 318.528 276.045 323.227 277 328 c 0
 280 341 287 355 297 369 c 2
 477 576 l 1
 228 562 l 2
 202.654 562 166.613 573.458 166.613 617.072 c 0
 166.613 623.359 167.362 630.314 169 638 c 0
 178 681 214 712 260 712 c 2
 506 698 l 1
 414 906 l 2
 410 917 408 932 411 948 c 0
 415 969 430 992 463 1009 c 0
 478 1017 493 1021 506 1021 c 0
 531 1021 552 1007 560 981 c 2
 623 762 l 1
 779 979 l 2
 798 1005 824 1019 849 1019 c 0
 863 1019 876 1015 887 1007 c 0
 908.356 993.554 915.323 976.353 915.323 959.358 c 0
 915.323 954.867 914.836 950.39 914 946 c 0
 910 930 902 915 893 904 c 2
 714 698 l 1
 964 712 l 2
 1003.58 712 1026.87 689.052 1026.87 655.257 c 0
 1026.87 649.773 1026.26 644.003 1025 638 c 0
 1012 577 961 562 932 562 c 2
 691 576 l 1
 782 371 l 2
 787 357 788 343 785 330 c 0
 780 305 761 282 734 268 c 0
 717 259 702 256 690 256 c 0
 659 256 641 277 636 296 c 2
 572 518 l 1
EndSplineSet
EndChar
StartChar: plus
Encoding: 11 43 11
Width: 894
Flags: HMW
Fore
229 711 m 1
 536 711 l 1
 602 1022 l 1
 743 1022 l 1
 677 711 l 1
 985 711 l 1
 955 569 l 1
 647 569 l 1
 581 258 l 1
 440 258 l 1
 506 569 l 1
 199 569 l 1
 229 711 l 1
EndSplineSet
EndChar
StartChar: comma
Encoding: 12 44 12
Width: 399
Flags: HMW
Fore
338 94 m 1
 305 -63 177 -186 148 -221 c 1
 99 -190 l 1
 126 -160 193 -84 208 -12 c 0
 156 -12 121 23 121 72 c 0
 121 79 121 87 123 94 c 0
 136 154 195 202 254 202 c 0
 306 202 341 165 341 117 c 0
 341 109 340 102 338 94 c 1
EndSplineSet
EndChar
StartChar: hyphen
Encoding: 13 45 13
Width: 866
Flags: HMW
Fore
259 705 m 1
 936 705 l 1
 906 563 l 1
 229 563 l 1
 259 705 l 1
EndSplineSet
EndChar
StartChar: period
Encoding: 14 46 14
Width: 405
Flags: HMW
Back
55.5117 138.778 m 4
 55.5117 215.382 117.684 277.556 194.288 277.556 c 4
 270.894 277.556 333.066 215.382 333.066 138.778 c 4
 333.066 62.1719 270.894 0 194.288 0 c 4
 117.684 0 55.5117 62.1719 55.5117 138.778 c 4
EndSplineSet
Fore
123 94 m 0
 136 154 195 202 254 202 c 0
 306 202 341 165 341 117 c 0
 341 109 340 102 338 94 c 0
 325 35 267 -13 208 -13 c 0
 156 -13 121 23 121 72 c 0
 121 79 121 87 123 94 c 0
EndSplineSet
EndChar
StartChar: slash
Encoding: 15 47 15
Width: 808
Flags: HMW
Fore
135 0 m 1
 -23 0 l 1
 1022 1544 l 0
 1180 1544 l 1
 135 0 l 1
EndSplineSet
KernsSLIFO: 15 -143 0 0
EndChar
StartChar: zero
Encoding: 16 48 16
Width: 1136
Flags: HMW
Fore
255 727 m 0
 342 1137 596 1493 899 1493 c 1
 1128 1493 1235 1288 1235 1011 c 0
 1235 922 1225 826 1204 727 c 1
 1117 319 871 -29 567 -29 c 1
 336.036 -29 224.993 173.183 224.993 450.269 c 0
 224.993 538.159 233.57 630.057 255 727 c 0
413 727 m 1
 395 644 384 555 384 472 c 0
 385 277 442 113 597 113 c 1
 821 113 986 449 1046 727 c 1
 1063.3 812.541 1075.06 903.624 1075.06 988.708 c 0
 1075.06 992.149 1075.04 995.58 1075 999 c 0
 1075.01 1004.12 l 0
 1075.01 1193.85 1019.65 1352 869 1352 c 1
 647 1352 472 1008 413 727 c 1
EndSplineSet
EndChar
StartChar: one
Encoding: 17 49 17
Width: 1136
Flags: HMWO
Fore
838 1206 m 1
 680 1206 l 1
 956 1456 l 1
 1048 1456 l 1
 739 0 l 1
 582 0 l 1
 838 1206 l 1
EndSplineSet
EndChar
StartChar: two
Encoding: 18 50 18
Width: 1136
Flags: HMW
Back
111.81 1007.74 m 4
 111.81 1276.45 310.762 1494.53 555.898 1494.53 c 4
 801.036 1494.53 999.987 1276.45 999.987 1007.74 c 4
 999.987 739.031 801.036 520.95 555.898 520.95 c 4
 310.762 520.95 111.81 739.031 111.81 1007.74 c 4
338.125 1007.74 m 4
 338.125 1163.31 435.688 1289.56 555.898 1289.56 c 4
 676.11 1289.56 773.673 1163.31 773.673 1007.74 c 4
 773.673 852.173 676.11 725.914 555.898 725.914 c 4
 435.688 725.914 338.125 852.173 338.125 1007.74 c 4
EndSplineSet
Fore
498 1110 m 9
 371 1165 l 17
 461 1348 685 1495 887 1495 c 0
 1068.17 1495 1226.48 1395.47 1226.48 1173 c 0
 1226.48 1136.37 1222.19 1096.4 1213 1053 c 0
 1153 772 819 610 707 541 c 0
 588 467 351 274 323 141 c 1
 1046 141 l 17
 1016 0 l 1
 109 0 l 1
 178 326 446 528 689 676 c 0
 812 751 1017 850 1060 1053 c 0
 1065.89 1081.16 1068.64 1107.45 1068.64 1131.82 c 0
 1068.64 1277.01 970.888 1354 857 1354 c 0
 730 1354 583 1272 498 1110 c 9
EndSplineSet
EndChar
StartChar: three
Encoding: 19 51 19
Width: 1126
Flags: HMW
Back
25.6201 1076.06 m 4
 25.6201 1321.2 224.571 1494.53 469.709 1494.53 c 4
 714.847 1494.53 913.797 1321.2 913.797 1076.06 c 4
 913.797 830.925 714.847 657.593 469.709 657.593 c 4
 224.571 657.593 25.6201 830.925 25.6201 1076.06 c 4
226.314 1076.06 m 4
 226.314 1210.41 335.355 1293.83 469.709 1293.83 c 4
 604.062 1293.83 713.104 1210.41 713.104 1076.06 c 4
 713.104 941.705 604.062 858.286 469.709 858.286 c 4
 335.355 858.286 226.314 941.705 226.314 1076.06 c 4
469.709 1076.06 m 29
23.4863 414.198 m 4
 23.4863 659.333 222.436 858.286 467.575 858.286 c 4
 712.71 858.286 911.661 659.333 911.661 414.198 c 4
 911.661 169.06 712.71 -29.8896 467.575 -29.8896 c 4
 222.438 -29.8896 23.4863 169.06 23.4863 414.198 c 4
224.181 414.198 m 4
 224.181 548.553 333.22 657.593 467.575 657.593 c 4
 601.928 657.593 710.968 548.553 710.968 414.198 c 4
 710.968 279.845 601.928 170.804 467.575 170.804 c 4
 333.22 170.804 224.181 279.845 224.181 414.198 c 4
467.575 414.198 m 29
EndSplineSet
Fore
167 252 m 9
 332 299 l 17
 359 188 462 113 571 113 c 1
 749 113 928 229 969 424 c 0
 974.155 448.098 976.58 470.831 976.58 492.179 c 0
 976.58 648.893 845.937 731 706 731 c 2
 628 731 l 1
 655 856 l 1
 753 856 l 0
 878 856 1016 963 1048 1116 c 0
 1051.53 1132.69 1053.21 1148.9 1053.21 1164.51 c 0
 1053.21 1277.02 966.016 1358 858 1358 c 2
 852 1358 l 0
 742 1358 646 1294 585 1200 c 9
 462 1264 l 17
 560 1401 719 1497 887 1497 c 0
 1064.29 1497 1214.35 1377.19 1214.35 1193.16 c 0
 1214.35 1168.54 1211.66 1142.78 1206 1116 c 0
 1169 940 1030 829 955 795 c 1
 1032.5 770.026 1134.48 660.51 1134.48 503.493 c 0
 1134.48 478.178 1131.83 451.629 1126 424 c 0
 1070 160 815 -29 541 -29 c 1
 385 -29 205 72 167 252 c 9
EndSplineSet
EndChar
StartChar: four
Encoding: 20 52 20
Width: 1136
Flags: HMW
Fore
1171 1445 m 1
 978 537 l 9
 1167 537 l 17
 1137 397 l 1
 948 397 l 1
 864 0 l 1
 707 0 l 1
 791 397 l 1
 172 397 l 9
 1003 1456 l 1
 1016 1456 l 1
 1173 1456 l 1
 1171 1445 l 1
971 1221 m 1
 439 539 l 1
 826 539 l 1
 971 1221 l 1
EndSplineSet
EndChar
StartChar: five
Encoding: 21 53 21
Width: 1136
Flags: HMW
Back
224.181 1131.57 m 4
 224.181 1331.92 388.696 1494.53 591.405 1494.53 c 4
 794.116 1494.53 958.632 1331.92 958.632 1131.57 c 4
 958.632 931.22 794.116 768.614 591.405 768.614 c 4
 388.696 768.614 224.181 931.22 224.181 1131.57 c 4
145.182 414.198 m 4
 145.182 659.333 344.134 858.286 589.271 858.286 c 4
 834.408 858.286 1033.36 659.333 1033.36 414.198 c 4
 1033.36 169.06 834.408 -29.8896 589.271 -29.8896 c 4
 344.134 -29.8896 145.182 169.06 145.182 414.198 c 4
345.877 414.198 m 4
 345.877 548.553 454.918 657.593 589.271 657.593 c 4
 723.624 657.593 832.666 548.553 832.666 414.198 c 4
 832.666 279.845 723.624 170.804 589.271 170.804 c 4
 454.918 170.804 345.877 279.845 345.877 414.198 c 4
589.271 414.198 m 29
EndSplineSet
Fore
776 807 m 1
 616 807 531 735 495 711 c 1
 366 786 l 9
 602 1456 l 1
 1274 1456 l 1
 1245 1315 l 1
 704 1315 l 1
 547 887 l 1
 612 922 692 942 804 942 c 1
 1021 942 1159 802 1160 584 c 0
 1160 545 1156 503 1147 459 c 1
 1092 201 871 -29 592 -29 c 1
 361 -29 220 119 205 330 c 9
 367 358 l 17
 380 256 425 113 622 113 c 1
 798 113 947 254 991 461 c 1
 997 490 1000 518 1000 544 c 0
 1000 697 905 807 776 807 c 1
EndSplineSet
EndChar
StartChar: six
Encoding: 22 54 22
Width: 1136
Flags: HMW
Back
199.348 1131.57 m 4
 199.348 1331.92 363.864 1494.53 566.573 1494.53 c 4
 769.284 1494.53 933.8 1331.92 933.8 1131.57 c 4
 933.8 931.22 769.284 768.614 566.573 768.614 c 4
 363.864 768.614 199.348 931.22 199.348 1131.57 c 4
120.35 414.198 m 4
 120.35 659.333 319.302 858.286 564.439 858.286 c 4
 809.576 858.286 1008.53 659.333 1008.53 414.198 c 4
 1008.53 169.06 809.576 -29.8896 564.439 -29.8896 c 4
 319.302 -29.8896 120.35 169.06 120.35 414.198 c 4
321.045 414.198 m 4
 321.045 548.553 430.086 657.593 564.439 657.593 c 4
 698.792 657.593 807.834 548.553 807.834 414.198 c 4
 807.834 279.845 698.792 170.804 564.439 170.804 c 4
 430.086 170.804 321.045 279.845 321.045 414.198 c 4
564.439 414.198 m 29
EndSplineSet
Fore
966 408 m 1
 970 429 972 450 972 471 c 0
 972 604 879 709 724 709 c 1
 546 709 398 561 367 412 c 1
 362 390 359 369 359 349 c 0
 359 212 462 121 601 121 c 1
 786 121 936 266 966 408 c 1
612 827 m 1
 661 846 696 858 755 858 c 0
 971 858 1125 709 1125 502 c 0
 1125 472 1122 440 1115 408 c 1
 1071 201 844 -29 565 -29 c 1
 335 -29 207 137 207 323 c 0
 207 351 210 381 216 410 c 1
 260 614 417 784 482 870 c 1
 940 1454 l 9
 1095 1454 l 17
 612 827 l 1
EndSplineSet
EndChar
StartChar: seven
Encoding: 23 55 23
Width: 1136
Flags: HMW
Fore
1388 1456 m 1
 524 0 l 1
 342 0 l 1
 1136 1307 l 1
 389 1307 l 1
 420 1456 l 1
 1388 1456 l 1
EndSplineSet
EndChar
StartChar: eight
Encoding: 24 56 24
Width: 1136
Flags: HMW
Back
136.642 1076.06 m 4
 136.642 1321.2 335.594 1494.53 580.73 1494.53 c 4
 825.868 1494.53 1024.82 1321.2 1024.82 1076.06 c 4
 1024.82 830.925 825.868 657.593 580.73 657.593 c 4
 335.594 657.593 136.642 830.925 136.642 1076.06 c 4
337.336 1076.06 m 4
 337.336 1210.41 446.378 1293.83 580.73 1293.83 c 4
 715.084 1293.83 824.125 1210.41 824.125 1076.06 c 4
 824.125 941.705 715.084 858.286 580.73 858.286 c 4
 446.378 858.286 337.336 941.705 337.336 1076.06 c 4
580.73 1076.06 m 29
134.508 414.198 m 4
 134.508 659.333 333.46 858.286 578.597 858.286 c 4
 823.732 858.286 1022.68 659.333 1022.68 414.198 c 4
 1022.68 169.06 823.732 -29.8896 578.597 -29.8896 c 4
 333.46 -29.8896 134.508 169.06 134.508 414.198 c 4
335.202 414.198 m 4
 335.202 548.553 444.242 657.593 578.597 657.593 c 4
 712.95 657.593 821.989 548.553 821.989 414.198 c 4
 821.989 279.845 712.95 170.804 578.597 170.804 c 4
 444.242 170.804 335.202 279.845 335.202 414.198 c 4
578.597 414.198 m 29
EndSplineSet
Fore
606 113 m 0
 788 113 967 256 1005 432 c 1
 1010 455 1012 477 1013 498 c 0
 1013 648 892 739 743 739 c 1
 563 739 395 627 354 432 c 0
 349 409 347 386 346 364 c 0
 347 216 456 113 606 113 c 0
571 1124 m 1
 566 1103 564 1084 564 1065 c 0
 564 949 647 881 773 881 c 1
 916 881 1044 969 1077 1124 c 1
 1081 1143 1083 1161 1082 1178 c 0
 1082 1282 1011 1356 872 1356 c 1
 708 1356 598 1251 571 1124 c 1
902 1497 m 1
 1108 1497 1242 1375 1242 1201 c 0
 1242.13 1197.95 1242.19 1194.87 1242.19 1191.76 c 0
 1242.19 1170.38 1239.24 1147.57 1234 1124 c 1
 1193 930 1049 844 979 807 c 1
 1059 766 1172 673 1172 512 c 0
 1172 487 1169 461 1163 432 c 1
 1107 168 838 -29 576 -29 c 1
 347 -29 186 124 185 336 c 0
 186 367 189 399 196 432 c 1
 243 653 427 768 532 807 c 1
 476 844 403 907 403 1037 c 0
 403 1063 406 1092 413 1124 c 1
 458 1335 666 1497 902 1497 c 1
EndSplineSet
EndChar
StartChar: nine
Encoding: 25 57 25
Width: 1136
Flags: HMW
Back
241.089 1054.5 m 5
 241.089 925.477 341.351 811.358 484.653 811.358 c 5
 623.176 811.358 719.424 925.477 719.424 1043.11 c 5
 719.424 1190.22 608.229 1291.96 477.993 1291.96 c 5
 354.16 1291.96 241.089 1194.49 241.089 1054.5 c 5
737.784 716.073 m 5
 678.687 635.109 567.665 606.352 484.653 606.352 c 5
 200.438 606.352 34.5879 844.344 34.5879 1052.6 c 5
 34.5879 1299.11 232.465 1497.67 477.993 1497.67 c 4
 783.305 1497.67 945.572 1233.45 955.165 951.096 c 4
 957.44 884.068 953.269 811.487 943.432 720.511 c 5
EndSplineSet
Fore
517 1053 m 1
 512 1031 510 1010 510 989 c 0
 510 856 604 752 758 752 c 1
 936 752 1084 899 1116 1049 c 1
 1120 1070 1123 1091 1122 1111 c 0
 1122 1248 1020 1341 881 1341 c 1
 697 1341 547 1194 517 1053 c 1
870 633 m 1
 821 614 785 602 726 602 c 0
 510 602 357 751 357 958 c 0
 357 988 360 1020 367 1053 c 1
 411 1260 639 1491 917 1491 c 1
 1148 1491 1275 1323 1275 1138 c 0
 1275 1109 1272 1080 1265 1051 c 1
 1222 846 1066 676 999 590 c 1
 550 0 l 9
 382 0 l 17
 870 633 l 1
EndSplineSet
EndChar
StartChar: less
Encoding: 28 60 28
Width: 843
Flags: HMW
Fore
597 23 m 1
 219 635 l 1
 855 1235 l 1
 1054 1235 l 1
 416 633 l 1
 796 23 l 1
 597 23 l 1
EndSplineSet
EndChar
StartChar: equal
Encoding: 29 61 29
Width: 907
Flags: HMW
Fore
172 500 m 1
 972 500 l 1
 942 358 l 1
 142 358 l 1
 172 500 l 1
250 866 m 1
 1050 866 l 1
 1020 725 l 1
 220 725 l 1
 250 866 l 1
EndSplineSet
EndChar
StartChar: greater
Encoding: 30 62 30
Width: 856
Flags: HMW
Fore
295 20 m 1
 96 20 l 1
 735 633 l 1
 355 1235 l 1
 554 1235 l 1
 932 635 l 1
 295 20 l 1
EndSplineSet
EndChar
StartChar: question
Encoding: 31 63 31
Width: 985
Flags: HMW
Back
264.745 1093.14 m 0
 264.745 1199.21 373.787 1289.56 508.14 1289.56 c 4
 642.494 1289.56 751.534 1199.21 751.534 1093.14 c 0
 751.534 987.072 642.494 900.987 508.14 900.987 c 0
 373.787 900.987 264.745 987.072 264.745 1093.14 c 0
51.2402 1093.14 m 0
 51.2402 1314.71 254.018 1494.53 503.869 1494.53 c 0
 753.72 1494.53 956.498 1314.71 956.498 1093.14 c 0
 956.498 871.573 753.72 691.753 503.869 691.753 c 0
 254.018 691.753 51.2402 871.573 51.2402 1093.14 c 0
EndSplineSet
Fore
679 501 m 1
 650 360 l 1
 493 360 l 1
 523 505 l 0
 563 692 706 759 829 852 c 0
 911 914 978 960 1007 1094 c 0
 1012.02 1117.71 1014.44 1139.91 1014.44 1160.55 c 0
 1014.44 1287.87 922.543 1356 784 1356 c 0
 610 1356 457 1196 434 1085 c 1
 293 1110 l 1
 364 1327 580 1497 807 1497 c 0
 1003.55 1497 1175.46 1396.91 1175.46 1190.65 c 0
 1175.46 1161.84 1172.11 1130.97 1165 1098 c 0
 1135 956 1050 862 964 791 c 0
 839 688 715 668 679 501 c 1
EndSplineSet
Refer: 14 46 N 1 0 0 1 293 0 2
EndChar
StartChar: at
Encoding: 32 64 32
Width: 1624
Flags: HMW
Back
1095.49 730.855 m 4
 1095.49 823.845 1170.96 899.31 1263.94 899.31 c 4
 1356.93 899.31 1432.4 823.845 1432.4 730.855 c 4
 1432.4 637.868 1356.93 562.401 1263.94 562.401 c 4
 1170.96 562.401 1095.49 637.868 1095.49 730.855 c 4
969.309 730.184 m 0
 969.309 892.821 1101.3 1024.82 1263.94 1024.82 c 0
 1426.58 1024.82 1558.58 892.821 1558.58 730.184 c 0
 1558.58 567.544 1426.58 435.548 1263.94 435.548 c 0
 1101.3 435.548 969.309 567.544 969.309 730.184 c 0
581.585 730.654 m 0
 581.585 847.868 677.96 944.243 795.175 944.243 c 0
 912.388 944.243 1008.76 847.868 1008.76 730.654 c 0
 1008.76 613.439 912.388 517.064 795.175 517.064 c 0
 677.96 517.064 581.585 613.439 581.585 730.654 c 0
157.566 730.323 m 0
 157.566 1082.76 441.795 1366.99 794.235 1366.99 c 0
 1146.68 1366.99 1430.91 1082.76 1430.91 730.323 c 0
 1430.91 377.881 1146.68 93.6543 794.235 93.6543 c 0
 441.795 93.6543 157.566 377.881 157.566 730.323 c 0
29.8896 730.184 m 0
 29.8896 1152.92 371.497 1494.53 794.235 1494.53 c 0
 1216.97 1494.53 1558.58 1152.92 1558.58 730.184 c 0
 1558.58 307.445 1216.97 -34.1602 794.235 -34.1602 c 0
 371.497 -34.1602 29.8896 307.445 29.8896 730.184 c 0
452.629 730.184 m 0
 452.629 918.067 606.352 1071.79 794.235 1071.79 c 0
 982.118 1071.79 1135.84 918.067 1135.84 730.184 c 0
 1135.84 542.3 982.118 388.577 794.235 388.577 c 0
 606.352 388.577 452.629 542.3 452.629 730.184 c 0
EndSplineSet
Fore
1221 213 m 1
 1277 111 l 17
 1130 18 966 -35 798 -35 c 0
 429 -35 179 224 179 569 c 0
 179 622 185 676 196 731 c 0
 286 1153 699 1495 1123 1495 c 0
 1495 1495 1745 1231 1745 913 c 0
 1745 870 1741 827 1731 782 c 0
 1687 573 1492 418 1373 418 c 0
 1299 418 1220 461 1179 518 c 1
 1103 438 994 389 888 389 c 0
 724 389 611 506 610 660 c 0
 610 683 613 707 618 731 c 0
 658 918 844 1071 1033 1071 c 0
 1195 1071 1292 951 1292 805 c 0
 1292 781 1289 756 1283 731 c 0
 1281 719 1280 706 1280 693 c 0
 1280 619 1324 547 1394 547 c 0
 1466 547 1575 655 1602 782 c 0
 1609 816 1613 850 1613 884 c 0
 1613 1138 1412 1368 1096 1368 c 0
 737 1368 396 1071 323 727 c 0
 313 683 309 639 309 597 c 0
 309 314 513 92 825 92 c 0
 952 92 1110 145 1221 213 c 1
747 731 m 0
 744 715 743 699 742 684 c 0
 742 584 815 516 915 516 c 0
 1038 516 1135 614 1159 731 c 0
 1162 745 1163 759 1163 772 c 0
 1163 866 1095 946 1006 946 c 0
 895 946 773 850 747 731 c 0
EndSplineSet
EndChar
StartChar: m
Encoding: 77 109 33
Width: 1533
Flags: HMW
Back
280.576 0 m 9
 129.024 0 l 1
 129.024 1073.15 l 1
 280.576 1073.15 l 1
 280.576 870.4 l 17
 335.872 980.992 387.072 1101.82 532.48 1101.82 c 0
 731.136 1101.82 854.014 983.04 854.014 657.408 c 1
 854.016 0 l 1
 702.464 0 l 0
 702.462 657.408 l 1
 702.462 876.544 667.648 964.608 532.482 964.608 c 0
 376.832 964.608 280.576 790.528 280.576 618.496 c 0
 280.576 0 l 9
143.36 1474.56 m 25
 143.36 -53.248 l 25
430.08 1466.37 m 25
 430.08 -61.4404 l 25
286.72 -69.6318 m 25
 286.72 1458.18 l 25
 286.72 -69.6318 l 25
573.44 1470.46 m 25
 573.44 -57.3438 l 25
716.8 1466.37 m 25
 716.8 -61.4404 l 25
860.16 -49.1523 m 25
 860.16 1478.66 l 25
 860.16 -49.1523 l 25
EndSplineSet
Fore
854 0 m 1
 702 0 l 0
 818 547 l 1
 835.432 628.473 848.555 708.224 848.555 775.857 c 0
 848.555 886.701 813.305 965 704 965 c 0
 529 965 444 765 398 550 c 0
 281 0 l 9
 129 0 l 1
 357 1073 l 1
 509 1073 l 1
 470 891 l 17
 539 992 618 1102 776 1102 c 0
 939 1102 1011 990 1017 860 c 1
 1077 990 1200 1102 1353 1102 c 0
 1519.5 1102 1587.56 998.5 1587.56 834.953 c 0
 1587.56 780.437 1580 719.25 1566 653 c 1
 1427 0 l 1
 1276 0 l 0
 1391 543 l 1
 1408.71 626.14 1422.26 706.761 1422.26 774.485 c 0
 1422.26 882.71 1387.64 958 1280 958 c 0
 1104 958 1017 765 971 549 c 0
 854 0 l 1
EndSplineSet
EndChar
StartChar: n
Encoding: 78 110 34
Width: 1064
Flags: HMW
Back
280.576 0 m 13
 129.024 0 l 5
 129.024 1073.15 l 5
 280.576 1073.15 l 5
 280.576 892.928 l 21
 313.344 970.752 423.936 1101.82 552.96 1101.82 c 4
 755.516 1101.82 956.429 902.24 956.414 659.456 c 5
 956.416 0 l 5
 804.864 0 l 4
 804.864 661.504 l 6
 804.864 850.59 672.924 964.608 550.912 964.608 c 4
 407.552 964.608 280.574 806.912 280.574 618.496 c 4
 280.576 0 l 13
1003.52 -49.1523 m 25
 1003.52 1478.66 l 25
 1003.52 -49.1523 l 25
143.36 1474.56 m 25
 143.36 -53.248 l 25
430.08 1466.37 m 25
 430.08 -61.4404 l 25
286.72 -69.6318 m 25
 286.72 1458.18 l 25
 286.72 -69.6318 l 25
573.44 1470.46 m 25
 573.44 -57.3438 l 25
716.8 1466.37 m 25
 716.8 -61.4404 l 25
860.16 -49.1523 m 25
 860.16 1478.66 l 25
 860.16 -49.1523 l 25
EndSplineSet
Fore
281 0 m 9
 129 0 l 1
 357 1073 l 1
 509 1073 l 1
 471 892 l 17
 529 1004 662 1102 820 1102 c 0
 987.544 1102 1097.47 998.411 1097.47 765.318 c 0
 1097.47 700.686 1089.02 626.098 1071 541 c 2
 956 0 l 1
 805 0 l 0
 920 541 l 1
 933.215 603.839 940.538 663.622 940.538 717.428 c 0
 940.538 863.131 886.837 965 751 965 c 0
 565 965 444 768 396 540 c 0
 281 0 l 9
EndSplineSet
EndChar
StartChar: o
Encoding: 79 111 35
Width: 1054
Flags: HMW
Back
1003.52 -49.1523 m 29
 1003.52 1478.66 l 29
 1003.52 -49.1523 l 29
143.36 1474.56 m 25
 143.36 -53.248 l 25
430.08 1466.37 m 25
 430.08 -61.4404 l 25
286.72 -69.6318 m 25
 286.72 1458.18 l 25
 286.72 -69.6318 l 25
573.44 1470.46 m 25
 573.44 -57.3438 l 25
716.8 1466.37 m 25
 716.8 -61.4404 l 25
860.16 -49.1523 m 25
 860.16 1478.66 l 25
 860.16 -49.1523 l 25
EndSplineSet
Fore
216 537 m 0
 283 852 485 1094 772 1094 c 0
 1000.44 1094 1108.74 936.595 1108.74 713.449 c 0
 1108.74 658.199 1102.1 598.919 1089 537 c 0
 1022 221 822 -29 533 -29 c 0
 303.705 -29 195.687 131.851 195.687 356.662 c 0
 195.687 413.238 202.529 473.866 216 537 c 0
370 537 m 0
 357.606 478.067 350.779 421.373 350.779 369.556 c 0
 350.779 216.506 410.345 106 562 106 c 0
 763 106 886 304 935 537 c 0
 947.25 594.75 953.938 649.938 953.938 700.234 c 0
 953.938 851.125 893.75 958 743 958 c 0
 540 958 419 768 370 537 c 0
EndSplineSet
KernsSLIFO: 44 -53 0 0
EndChar
StartChar: p
Encoding: 80 112 36
Width: 1044
Flags: HMW
Back
280.576 0 m 13
 129.024 0 l 5
 129.024 1073.15 l 5
 280.576 1073.15 l 5
 280.576 870.4 l 21
 335.872 980.992 438.272 1101.82 583.68 1101.82 c 4
 782.336 1101.82 956.414 983.04 956.414 657.408 c 5
 956.416 0 l 5
 804.864 0 l 4
 804.862 657.408 l 5
 804.862 876.544 718.848 964.608 583.682 964.608 c 4
 428.032 964.608 280.576 790.528 280.576 618.496 c 4
 280.576 0 l 13
143.36 1474.56 m 25
 143.36 -53.248 l 25
430.08 1466.37 m 25
 430.08 -61.4404 l 25
286.72 -69.6318 m 25
 286.72 1458.18 l 25
 286.72 -69.6318 l 25
573.44 1470.46 m 25
 573.44 -57.3438 l 25
716.8 1466.37 m 25
 716.8 -61.4404 l 25
860.16 -49.1523 m 25
 860.16 1478.66 l 25
 860.16 -49.1523 l 25
EndSplineSet
Fore
509 1073 m 9
 469 886 l 1
 540 996 642 1102 814 1102 c 0
 1028.45 1102 1112.09 941.268 1112.09 736.17 c 0
 1112.09 673.484 1104.28 606.653 1090 539 c 0
 1029 254 855 -29 572 -29 c 4
 398 -29 344 76 320 184 c 9
 190 -428 l 1
 38 -428 l 1
 357 1073 l 1
 509 1073 l 9
936 539 m 0
 948.212 597.322 953.907 650.014 953.907 696.861 c 0
 953.907 872.515 873.839 966 757 966 c 0
 609 966 449 812 390 537 c 0
 378.225 481.578 372.756 430.896 372.756 385.312 c 0
 372.756 206.36 457.046 106 575 106 c 0
 723 106 877 264 936 539 c 0
EndSplineSet
EndChar
StartChar: q
Encoding: 81 113 37
Width: 1048
Flags: HMW
Back
262.144 538.624 m 4
 262.144 322.897 356.633 106.496 509.954 106.496 c 4
 624.643 106.496 806.912 253.952 806.912 538.624 c 4
 806.912 779.053 651.571 956.416 505.856 956.416 c 4
 366.592 956.416 262.144 772.096 262.144 538.624 c 4
802.816 161.792 m 5
 764.203 104.886 666.786 -28.6963 513.495 -28.6963 c 4
 512.317 -28.6963 511.138 -28.6875 509.95 -28.6719 c 5
 509.053 -28.6777 508.156 -28.6816 507.263 -28.6816 c 4
 237.511 -28.6816 108.544 279.279 108.544 542.72 c 4
 108.544 825.344 249.856 1093.63 505.856 1093.63 c 4
 638.976 1093.63 747.522 995.328 802.818 894.976 c 13
 802.816 1073.15 l 5
 954.368 1073.15 l 5
 954.368 -18.4316 l 6
 954.368 -290.816 751.616 -448.512 548.864 -448.512 c 4
 293.073 -448.512 150.618 -252.853 133.12 -108.544 c 5
 276.478 -108.544 l 21
 295.285 -229.32 422.126 -313.344 540.672 -313.344 c 4
 665.6 -313.344 802.816 -225.28 802.816 -32.7676 c 4
 802.816 161.792 l 5
143.36 1474.56 m 25
 143.36 -53.248 l 25
430.08 1466.37 m 25
 430.08 -61.4404 l 25
286.72 -69.6318 m 25
 286.72 1458.18 l 25
 286.72 -69.6318 l 25
573.44 1470.46 m 25
 573.44 -57.3438 l 25
716.8 1466.37 m 25
 716.8 -61.4404 l 25
860.16 -49.1523 m 25
 860.16 1478.66 l 25
 860.16 -49.1523 l 25
EndSplineSet
Fore
877 -199 m 2
 873.429 -215.804 871.491 -230.579 871.491 -243.435 c 0
 871.491 -291.783 898.905 -313 970 -313 c 1
 942 -449 l 1
 797.538 -449 714.454 -399.041 714.454 -278.623 c 0
 714.454 -256.502 717.258 -232.004 723 -205 c 2
 767 0 l 1
 806 184 l 17
 694 11 578 -29 460 -29 c 4
 247.892 -29 165.6 136.909 165.6 341.254 c 0
 165.6 404.734 173.542 471.923 188 539 c 0
 249 828 422 1102 702 1102 c 0
 874 1102 932 996 955 886 c 1
 995 1073 l 17
 1147 1073 l 1
 919 0 l 1
 877 -199 l 2
342 539 m 0
 329.358 480.077 323.465 426.525 323.465 378.748 c 0
 323.465 203.546 402.711 106 519 106 c 0
 667 106 828 264 886 537 c 0
 898.046 593.148 903.631 644.251 903.631 690.03 c 0
 903.631 868.466 818.782 966 701 966 c 0
 553 966 400 816 342 539 c 0
EndSplineSet
KernsSLIFO: 129 274 0 0
EndChar
StartChar: r
Encoding: 82 114 38
Width: 686
Flags: HMW
Back
143.36 1474.56 m 29
 143.36 -53.248 l 29
430.08 1466.37 m 29
 430.08 -61.4404 l 29
286.72 -69.6318 m 29
 286.72 1458.18 l 29
 286.72 -69.6318 l 29
573.44 1470.46 m 29
 573.44 -57.3438 l 29
716.8 1466.37 m 29
 716.8 -61.4404 l 29
860.16 -49.1523 m 29
 860.16 1478.66 l 29
 860.16 -49.1523 l 29
EndSplineSet
Fore
964 1066 m 0
 856 935 l 1
 829 954 793 965 751 965 c 0
 565 965 444 768 396 540 c 0
 281 0 l 9
 129 0 l 1
 357 1073 l 1
 509 1073 l 1
 471 892 l 17
 529 1004 662 1102 820 1102 c 0
 875 1102 923 1090 964 1066 c 0
EndSplineSet
KernsSLIFO: 124 -41 0 0
EndChar
StartChar: s
Encoding: 83 115 39
Width: 921
Flags: HMW
Back
108.544 806.912 m 4
 108.544 967.442 265.438 1097.73 458.752 1097.73 c 4
 652.066 1097.73 808.96 967.442 808.96 806.912 c 4
 808.96 646.382 652.066 516.096 458.752 516.096 c 4
 265.438 516.096 108.544 646.382 108.544 806.912 c 4
264.192 802.816 m 0
 264.192 890.995 353.189 962.561 462.848 962.561 c 0
 572.506 962.561 661.504 890.995 661.504 802.816 c 0
 661.504 714.638 572.506 643.072 462.848 643.072 c 0
 353.189 643.072 264.192 714.638 264.192 802.816 c 0
104.448 296.96 m 0
 104.448 475.578 266.847 620.544 466.944 620.544 c 0
 667.042 620.544 829.44 475.578 829.44 296.96 c 0
 829.44 118.342 667.042 -26.624 466.944 -26.624 c 0
 266.847 -26.624 104.448 118.342 104.448 296.96 c 0
256 301.056 m 0
 256 408.453 349.585 495.616 464.896 495.616 c 0
 580.207 495.616 673.792 408.453 673.792 301.056 c 0
 673.792 193.659 580.207 106.496 464.896 106.496 c 0
 349.585 106.496 256 193.659 256 301.056 c 0
143.36 1474.56 m 25
 143.36 -53.248 l 25
430.08 1466.37 m 25
 430.08 -61.4404 l 25
286.72 -69.6318 m 25
 286.72 1458.18 l 25
 286.72 -69.6318 l 25
573.44 1470.46 m 25
 573.44 -57.3438 l 25
716.8 1466.37 m 25
 716.8 -61.4404 l 25
860.16 -49.1523 m 25
 860.16 1478.66 l 25
 860.16 -49.1523 l 25
EndSplineSet
Fore
570 477 m 0
 433.874 525.045 285.873 588.129 285.873 745.839 c 0
 285.873 765.389 288.147 786.392 293 809 c 0
 334 1000 516 1096 702 1098 c 0
 930 1098 999 957 1008 871 c 1
 856 841 l 1
 843 898 801 963 676 963 c 0
 578 963 468 914 447 813 c 0
 444.443 800.971 443.258 789.759 443.258 779.297 c 0
 443.258 679.297 551.493 647.822 604 627 c 0
 719.429 581.009 908.049 529.325 908.049 350.21 c 0
 908.049 330.704 905.812 309.686 901 287 c 0
 861 101 664 -29 467 -29 c 0
 254 -29 160 78 142 217 c 1
 295 245 l 1
 314 163 361 106 492 106 c 0
 627 106 723 174 747 287 c 0
 749.272 297.603 750.343 307.623 750.343 317.103 c 0
 750.343 407.755 652.385 448.935 570 477 c 0
EndSplineSet
EndChar
StartChar: t
Encoding: 84 116 40
Width: 696
Flags: HMW
Back
143.36 1474.56 m 29
 143.36 -53.248 l 29
430.08 1466.37 m 29
 430.08 -61.4404 l 29
286.72 -69.6318 m 29
 286.72 1458.18 l 29
 286.72 -69.6318 l 29
573.44 1470.46 m 29
 573.44 -57.3438 l 29
716.8 1466.37 m 29
 716.8 -61.4404 l 29
860.16 -49.1523 m 29
 860.16 1478.66 l 29
 860.16 -49.1523 l 29
EndSplineSet
Fore
443 938 m 0
 301 938 l 1
 330 1073 l 1
 472 1073 l 0
 525 1323 l 1
 676 1323 l 0
 623 1073 l 0
 820 1073 l 1
 791 938 l 1
 594 938 l 0
 441 215 l 2
 438.03 201.372 436.555 188.935 436.555 177.688 c 0
 436.555 124.563 469.453 98 533 98 c 2
 603 98 l 1
 576 -29 l 1
 506 -29 l 2
 344.086 -29 278.516 17.5336 278.516 124.927 c 0
 278.516 150.188 282.145 178.817 289 211 c 1
 443 938 l 0
EndSplineSet
EndChar
StartChar: u
Encoding: 85 117 41
Width: 1064
Flags: HMW
Back
143.36 1474.56 m 29
 143.36 -53.248 l 29
430.08 1466.37 m 29
 430.08 -61.4404 l 29
286.72 -69.6318 m 29
 286.72 1458.18 l 29
 286.72 -69.6318 l 29
573.44 1470.46 m 29
 573.44 -57.3438 l 29
716.8 1466.37 m 29
 716.8 -61.4404 l 29
860.16 -49.1523 m 29
 860.16 1478.66 l 29
 860.16 -49.1523 l 29
EndSplineSet
Fore
1023 1073 m 9
 1175 1073 l 1
 947 0 l 1
 795 0 l 1
 834 181 l 17
 775 69 642 -29 484 -29 c 0
 316.456 -29 206.53 74.5894 206.53 307.682 c 0
 206.53 372.314 214.982 446.902 233 532 c 2
 348 1073 l 1
 499 1073 l 0
 384 532 l 1
 370.785 469.161 363.462 409.378 363.462 355.572 c 0
 363.462 209.869 417.163 108 553 108 c 0
 739 108 860 305 908 533 c 0
 1023 1073 l 9
EndSplineSet
EndChar
StartChar: v
Encoding: 86 118 42
Width: 1024
Flags: HMW
Back
143.36 1474.56 m 29
 143.36 -53.248 l 29
430.08 1466.37 m 29
 430.08 -61.4404 l 29
286.72 -69.6318 m 29
 286.72 1458.18 l 29
 286.72 -69.6318 l 29
573.44 1470.46 m 29
 573.44 -57.3438 l 29
716.8 1466.37 m 29
 716.8 -61.4404 l 29
860.16 -49.1523 m 29
 860.16 1478.66 l 29
 860.16 -49.1523 l 29
EndSplineSet
Fore
446 0 m 1
 310 1073 l 1
 470 1073 l 1
 563 195 l 1
 1037 1073 l 1
 1195 1073 l 1
 598 0 l 1
 446 0 l 1
EndSplineSet
EndChar
StartChar: w
Encoding: 87 119 43
Width: 1374
Flags: HMW
Back
143.36 1474.56 m 29
 143.36 -53.248 l 29
430.08 1466.37 m 29
 430.08 -61.4404 l 29
286.72 -69.6318 m 29
 286.72 1458.18 l 29
 286.72 -69.6318 l 29
573.44 1470.46 m 29
 573.44 -57.3438 l 29
716.8 1466.37 m 29
 716.8 -61.4404 l 29
860.16 -49.1523 m 29
 860.16 1478.66 l 29
 860.16 -49.1523 l 29
EndSplineSet
Fore
881 862 m 1
 471 0 l 1
 354 0 l 1
 296 1073 l 1
 449 1073 l 1
 467 250 l 1
 849 1065 l 0
 849 1065 941 1065 1000 1065 c 17
 1036 250 l 1
 1404 1073 l 17
 1557 1073 l 1
 1042 0 l 1
 920 0 l 1
 881 862 l 1
EndSplineSet
EndChar
StartChar: x
Encoding: 88 120 44
Width: 901
Flags: HMW
Back
143.36 1474.56 m 29
 143.36 -53.248 l 29
430.08 1466.37 m 29
 430.08 -61.4404 l 29
286.72 -69.6318 m 29
 286.72 1458.18 l 29
 286.72 -69.6318 l 29
573.44 1470.46 m 29
 573.44 -57.3438 l 29
716.8 1466.37 m 29
 716.8 -61.4404 l 29
860.16 -49.1523 m 29
 860.16 1478.66 l 29
 860.16 -49.1523 l 29
EndSplineSet
Fore
870 0 m 1
 700 0 l 9
 553 440 l 1
 229 0 l 1
 53 0 l 9
 482 539 l 1
 283 1073 l 9
 350 1073 453 1073 453 1073 c 0
 595 639 l 0
 920 1073 l 1
 1090 1073 l 1
 666 543 l 0
 870 0 l 1
EndSplineSet
EndChar
StartChar: y
Encoding: 89 121 45
Width: 1064
Flags: HMWO
Back
794.624 1073.15 m 13
 946.176 1073.15 l 5
 946.176 0 l 5
 794.624 0 l 5
 794.624 180.224 l 21
 761.856 102.4 651.264 -28.6719 522.24 -28.6719 c 4
 319.685 -28.6719 118.771 170.912 118.786 413.696 c 5
 118.784 1073.15 l 5
 270.336 1073.15 l 4
 270.336 411.648 l 6
 270.336 222.562 402.276 108.544 524.288 108.544 c 4
 667.648 108.544 794.626 266.24 794.626 454.656 c 4
 794.624 1073.15 l 13
143.36 1474.56 m 25
 143.36 -53.248 l 25
430.08 1466.37 m 25
 430.08 -61.4404 l 25
286.72 -69.6318 m 25
 286.72 1458.18 l 25
 286.72 -69.6318 l 25
573.44 1470.46 m 25
 573.44 -57.3438 l 25
716.8 1466.37 m 25
 716.8 -61.4404 l 25
860.16 -49.1523 m 25
 860.16 1478.66 l 25
 860.16 -49.1523 l 25
EndSplineSet
Fore
943 -18 m 2
 885 -291 628 -449 425 -449 c 1
 245 -449 151 -356 99 -275 c 0
 223 -190 l 0
 261 -252 326 -313 453 -313 c 0
 578 -313 747 -225 788 -33 c 0
 803 38 818 110 834 181 c 17
 775 69 642 -29 484 -29 c 0
 316.456 -29 206.53 74.5894 206.53 307.682 c 0
 206.53 372.314 214.982 446.902 233 532 c 2
 348 1073 l 1
 499 1073 l 0
 384 532 l 1
 370.785 469.161 363.462 409.378 363.462 355.572 c 0
 363.462 209.869 417.163 108 553 108 c 0
 739 108 860 305 908 533 c 0
 1023 1073 l 9
 1175 1073 l 1
 943 -18 l 2
EndSplineSet
KernsSLIFO: 129 117 0 0
EndChar
StartChar: z
Encoding: 90 122 46
Width: 962
Flags: HMW
Back
143.36 1474.56 m 29
 143.36 -53.248 l 29
430.08 1466.37 m 29
 430.08 -61.4404 l 29
286.72 -69.6318 m 29
 286.72 1458.18 l 29
 286.72 -69.6318 l 29
573.44 1470.46 m 29
 573.44 -57.3438 l 29
716.8 1466.37 m 29
 716.8 -61.4404 l 29
860.16 -49.1523 m 29
 860.16 1478.66 l 29
 860.16 -49.1523 l 29
EndSplineSet
Fore
372 141 m 1
 907 141 l 1
 877 0 l 1
 90 0 l 1
 853 932 l 2
 329 932 l 1
 359 1073 l 1
 1135 1073 l 1
 372 141 l 1
EndSplineSet
EndChar
StartChar: Oslash
Encoding: 151 216 53
Width: 2416
Flags: HMW
Fore
409 41 m 1
 363 -29 l 1
 211 -29 l 1
 319 134 l 1
 253 233 226 366 226 500 c 0
 226 574 234 649 249 718 c 1
 316 1034 558 1477 969 1477 c 1
 1053 1477 1122 1459 1177 1427 c 1
 1223 1496 l 0
 1375 1496 l 1
 1274 1345 l 1
 1356.77 1243.51 1390.02 1097.36 1390.02 949.593 c 0
 1390.02 947.395 1390.01 945.198 1390 943 c 0
 1390.05 939.111 1390.08 935.221 1390.08 931.333 c 0
 1390.08 858.237 1381.24 785.414 1367 718 c 1
 1299 402 1059 -29 649 -29 c 1
 549 -29 469 -3 409 41 c 1
494 170 m 1
 540 133 601 111 679 111 c 1
 987 111 1159 452 1216 718 c 0
 1231 790 1240 868 1241 945 c 0
 1240 1042 1224 1135 1183 1207 c 1
 494 170 l 1
415 279 m 1
 1092 1300 l 1
 1051 1324 1001 1338 939 1338 c 0
 630 1338 457 984 401 718 c 1
 386.634 650.001 375.937 577.415 375.937 507.271 c 0
 375.937 504.176 375.958 501.085 376 498 c 0
 376 419 387 342 415 279 c 1
EndSplineSet
EndChar
StartChar: Thorn
Encoding: 157 222 57
Width: 1329
Flags: HMW
Fore
404 477 m 1
 674 477 983 530 1029 750 c 1
 1033 765 1034 780 1034 794 c 0
 1034 987 723 1010 518 1010 c 1
 404 477 l 1
454 1456 m 0
 612 1456 l 1
 547 1150 l 1
 889 1150 1195 1081 1195 828 c 0
 1195 804 1192 778 1186 750 c 0
 1114 407 743 337 375 337 c 1
 303 0 l 1
 145 0 l 1
 454 1456 l 0
EndSplineSet
EndChar
StartChar: germandbls
Encoding: 158 223 58
Width: 1212
Flags: HMW
Fore
419 1152 m 1
 525 1333 714 1479 969 1479 c 1
 1183 1479 1342 1368 1342 1174 c 0
 1341 1147 1338 1118 1331 1087 c 0
 1330 1083 1329 1078 1328 1074 c 1
 1287 880 1065 778 939 747 c 1
 1035 722 1205 629 1205 446 c 0
 1205 425 1202 402 1197 378 c 1
 1132 72 896 -30 605 -30 c 1
 540 -30 491 -11 430 23 c 9
 547 146 l 17
 578 133 604 110 634 110 c 1
 830 110 1004 158 1050 378 c 1
 1054 393 1055 408 1055 423 c 0
 1055 577 875 679 696 679 c 1
 681 679 671 679 660 679 c 0
 647 679 635 679 617 673 c 1
 649 825 l 1
 664 821 674 821 685 821 c 0
 697 821 710 821 727 821 c 1
 898 821 1146 918 1179 1074 c 1
 1184.24 1097.57 1187.19 1120.38 1187.19 1141.09 c 0
 1187.19 1144.11 1187.13 1147.08 1187 1150 c 0
 1187 1282 1095 1342 940 1342 c 1
 736 1342 629 1241 551 1105 c 1
 430 885 325 310 240 0 c 1
 92 0 l 1
 201 361 297 928 419 1152 c 1
EndSplineSet
EndChar
StartChar: ae
Encoding: 165 230 63
Width: 1486
Flags: HMW
Back
849.216 604.16 m 5
 1379.01 604.16 l 5
 1361.25 781.345 1273.92 958.464 1114.11 958.464 c 4
 954.305 958.464 866.976 781.345 849.216 604.16 c 5
849.185 468.992 m 5
 866.88 290.24 954.241 106.496 1114.11 106.496 c 4
 1208.35 106.496 1274.62 162.464 1317.73 242.655 c 4
 1450.69 187.616 l 4
 1382.37 55.4238 1268.58 -28.6719 1114.11 -28.6719 c 5
 847.872 -28.6719 702.464 221.184 702.464 536.576 c 4
 702.464 851.968 847.872 1093.63 1114.11 1093.63 c 4
 1380.35 1093.63 1525.76 851.968 1525.76 536.576 c 4
 1525.76 514.539 1524.65 491.84 1522.62 468.992 c 5
 849.185 468.992 l 5
466.944 602.112 m 4
 315.392 602.112 221.184 483.328 221.184 354.304 c 4
 221.184 225.28 315.392 106.496 466.944 106.496 c 4
 593.92 106.496 712.704 221.184 712.704 354.304 c 5
 712.704 487.424 593.92 602.112 466.944 602.112 c 4
466.944 737.28 m 4
 606.208 737.28 688.128 679.936 716.8 630.784 c 5
 715.651 675.84 l 4
 715.651 829.44 622.592 954.368 471.04 954.368 c 4
 376.832 954.368 290.816 921.6 245.76 876.544 c 13
 215.408 916.48 167.936 978.944 167.936 978.944 c 4
 237.568 1036.29 327.68 1089.54 471.04 1089.54 c 4
 669.379 1089.54 851.697 944.128 851.697 675.84 c 4
 849.92 552.96 l 4
 851.968 270.336 l 5
 851.968 196.608 880.64 114.688 966.656 114.688 c 5
 966.656 -20.4805 l 5
 843.776 -20.4805 763.904 8.19238 745.472 100.352 c 5
 716.8 53.248 630.784 -28.6719 466.944 -28.6719 c 5
 241.664 -28.6719 77.8242 139.264 77.8242 354.304 c 4
 77.8242 569.344 262.144 737.28 466.944 737.28 c 4
EndSplineSet
Fore
564 602 m 0
 413 602 339 483 311 354 c 0
 305 325 301 296 301 269 c 0
 301 177 342 106 459 106 c 0
 586 106 684 221 712 354 c 1
 718 379 719 402 720 425 c 0
 720 525 668 602 564 602 c 0
914 910 m 1
 1009 1024 1091 1094 1234 1094 c 0
 1434 1094 1516 957 1516 756 c 0
 1516 689 1507 615 1490 537 c 0
 1485 515 1478 492 1473 469 c 1
 883 469 l 1
 876 436 867 382 867 325 c 0
 867 220 898 106 1024 106 c 0
 1119 106 1155 162 1216 243 c 0
 1337 188 l 0
 1241 55 1150 -29 995 -29 c 0
 835 -29 801 55 754 164 c 1
 681 70 623 -29 430 -29 c 0
 243 -29 148 88 147 251 c 0
 148 284 152 318 159 354 c 0
 205 569 388 737 593 737 c 0
 721 737 749 690 776 633 c 1
 781 649 781 676 787 692 c 1
 794 726 798 759 798 789 c 0
 798 886 755 954 643 954 c 0
 549 954 497 922 442 877 c 9
 421 916 386 979 386 979 c 0
 468 1036 529 1090 672 1090 c 0
 802 1090 870 1027 914 910 c 1
911 604 m 1
 1349 604 l 1
 1355 648 1358 691 1358 732 c 0
 1358 858 1326 958 1205 958 c 0
 1042 958 947 756 911 604 c 1
EndSplineSet
EndChar
StartChar: igrave
Encoding: 171 236 68
Width: 428
Flags: HMW
Fore
378 1073 m 1
 529 1073 l 1
 301 0 l 1
 150 0 l 1
 378 1073 l 1
EndSplineSet
Refer: 119 96 N 1 0 0 1 -169 14 2
EndChar
StartChar: iacute
Encoding: 172 237 69
Width: 421
Flags: HMW
Fore
378 1073 m 1
 529 1073 l 1
 301 0 l 1
 150 0 l 1
 378 1073 l 1
EndSplineSet
Refer: 153 180 N 1 0 0 1 74 -8 2
EndChar
StartChar: icircumflex
Encoding: 173 238 70
Width: 888
Flags: HMW
Fore
619 1073 m 1
 771 1073 l 1
 543 0 l 1
 391 0 l 1
 619 1073 l 1
EndSplineSet
Refer: 117 94 N 1 0 0 1 -25 -31 2
EndChar
StartChar: idieresis
Encoding: 174 239 71
Width: 667
Flags: HMW
Fore
500 1073 m 1
 652 1073 l 1
 424 0 l 1
 272 0 l 1
 500 1073 l 1
EndSplineSet
Refer: 144 168 N 1 0 0 1 23 430 2
EndChar
StartChar: eth
Encoding: 175 240 72
Width: 1030
Flags: HMW
Fore
330 455 m 0
 322 420 320 389 319 359 c 0
 320 191 429 106 515 106 c 0
 668 106 835 279 873 455 c 1
 878 478 880 500 880 521 c 0
 880 679 754 791 621 791 c 1
 498 791 361 604 330 455 c 0
958 1290 m 1
 1015 1204 1091 1033 1091 870 c 0
 1091 846 1089 823 1085 801 c 1
 1072 711 1065 644 1043 540 c 0
 1041 528 1038 515 1035 502 c 1
 969 193 731 -29 496 -29 c 0
 254 -29 162 118 162 307 c 0
 162 355 169 407 180 459 c 0
 234 717 445 926 660 926 c 0
 830 926 864 846 925 778 c 1
 930 799 932 824 932 851 c 0
 931 971 889 1136 827 1204 c 1
 644 1061 l 1
 566 1161 l 1
 729 1290 l 1
 679 1309 628 1315 575 1315 c 0
 536 1315 496 1311 458 1307 c 1
 475 1454 l 1
 502 1456 530 1456 557 1456 c 0
 669 1456 777 1440 870 1386 c 1
 1055 1526 l 1
 1128 1417 l 1
 958 1290 l 1
EndSplineSet
EndChar
StartChar: oslash
Encoding: 183 248 79
Width: 1024
Flags: HMW
Back
96.2559 536.576 m 4
 96.2559 851.968 241.664 1093.63 507.904 1093.63 c 4
 774.144 1093.63 919.552 851.968 919.552 536.576 c 4
 919.552 221.184 774.144 -28.6719 507.904 -28.6719 c 5
 241.664 -28.6719 96.2559 221.184 96.2559 536.576 c 4
239.616 536.576 m 4
 239.616 339.968 327.68 106.496 507.904 106.496 c 4
 700.416 106.496 776.192 339.968 776.192 536.576 c 4
 776.192 733.184 688.128 958.464 507.904 958.464 c 4
 327.68 958.464 239.616 733.184 239.616 536.576 c 4
EndSplineSet
Fore
907 771 m 1
 406 174 l 1
 437 132 481 106 541 106 c 0
 734 106 854 340 896 537 c 0
 907 588 914 641 914 691 c 0
 914 719 913 746 907 771 c 1
856 895 m 1
 825 934 781 958 722 958 c 0
 542 958 410 733 368 537 c 0
 357 485 350 431 350 379 c 0
 350 351 352 324 357 299 c 1
 856 895 l 1
80 -29 m 1
 234 153 l 1
 210 211 197 282 197 361 c 0
 197 416 203 475 216 537 c 0
 283 852 485 1094 751 1094 c 0
 840 1094 910 1067 961 1019 c 1
 1026 1098 l 1
 1181 1098 l 1
 1030 917 l 1
 1054.1 861.077 1067.05 793.997 1067.05 718.451 c 0
 1067.05 715.646 1067.04 712.829 1067 710 c 0
 1067 656 1061 598 1048 537 c 0
 981 221 778 -29 512 -29 c 1
 423 -29 353 0 301 49 c 1
 237 -29 l 1
 80 -29 l 1
EndSplineSet
EndChar
StartChar: thorn
Encoding: 189 254 83
Width: 1003
Flags: HMW
Fore
281 0 m 17
 129 0 l 1
 438 1454 l 1
 590 1454 l 1
 517 1112 l 17
 602 1206 689 1284 834 1284 c 0
 1028 1284 1111 1125 1111 922 c 0
 1111 862 1104 798 1090 733 c 0
 1030 451 881 164 557 164 c 1
 393 164 347 311 347 311 c 0
 347 311 307 121 281 0 c 17
937 729 m 0
 950 792 957 851 957 904 c 0
 957 1049 908 1149 815 1149 c 1
 676 1149 486 987 431 729 c 1
 419 672 414 621 414 576 c 0
 414 389 506 299 596 299 c 0
 746 299 879 455 937 729 c 0
EndSplineSet
EndChar
StartChar: Euro
Encoding: 202 8364 87
Width: 1089
Flags: HMW
Fore
432 762 m 1
 303 762 l 1
 332 897 l 1
 485 897 l 1
 571 1069 719 1196 891 1196 c 0
 1051 1196 1104 1155 1178 1063 c 9
 1133 1025 1062 967 1062 967 c 0
 1017 1024 982 1061 863 1061 c 1
 778 1061 699 988 642 897 c 1
 912 897 l 1
 883 762 l 1
 577 762 l 1
 571 743 566 724 562 707 c 0
 558 685 554 665 552 645 c 1
 852 645 l 1
 823 510 l 1
 558 510 l 1
 583 403 651 346 711 346 c 0
 797 346 851 362 957 457 c 9
 1033 360 l 1
 949 283 872 211 682 211 c 1
 497 211 413 341 402 510 c 1
 243 510 l 1
 272 645 l 1
 408 645 l 1
 411 667 414 689 419 711 c 0
 423 728 427 745 432 762 c 1
EndSplineSet
EndChar
StartChar: A
Encoding: 33 65 88
Width: 1302
Flags: HMW
Fore
917 1214 m 1
 587 621 l 1
 1002 621 l 1
 917 1214 l 1
1010 485 m 1
 513 485 l 0
 248 0 l 0
 72 0 l 1
 905 1456 l 0
 905 1456 982 1456 1032 1456 c 17
 1247 0 l 1
 1067 0 l 1
 1010 485 l 1
EndSplineSet
KernsSLIFO: 90 -80 0 0 43 -94 0 0 42 -164 0 0 109 -213 0 0 107 -98 0 0
EndChar
StartChar: B
Encoding: 34 66 89
Width: 1179
Flags: HMW
Back
337.92 1085.44 m 4
 337.92 1243.71 466.37 1372.16 624.64 1372.16 c 4
 782.909 1372.16 911.36 1243.71 911.36 1085.44 c 4
 911.36 927.171 782.909 798.72 624.64 798.72 c 4
 466.37 798.72 337.92 927.171 337.92 1085.44 c 4
262.144 405.504 m 4
 262.144 604.472 423.625 765.952 622.592 765.952 c 4
 821.56 765.952 983.04 604.472 983.04 405.504 c 4
 983.04 206.537 821.56 45.0557 622.592 45.0557 c 4
 423.625 45.0557 262.144 206.537 262.144 405.504 c 4
EndSplineSet
Fore
429 705 m 1
 309 141 l 1
 628 141 l 1
 868 141 991 287 1021 430 c 0
 1025.35 449.158 1028.19 467.558 1028.19 485.86 c 0
 1028.19 489.307 1028.01 492.685 1028.01 496.196 c 0
 1028.01 611.197 949.718 705 748 705 c 1
 721 705 461 705 429 705 c 1
559 1317 m 1
 458 844 l 1
 496 844 662 844 695 844 c 1
 984 844 1061 991 1079 1079 c 1
 1083 1095 1085 1112 1085 1130 c 0
 1085 1214 1034 1315 796 1315 c 1
 765 1315 595 1317 559 1317 c 1
430 1456 m 1
 825 1456 l 1
 1153 1456 1248 1301 1248 1156 c 0
 1247 1130 1245 1104 1239 1079 c 1
 1204 915 1030 782 922 782 c 1
 1122.33 782 1182.01 622.673 1182.01 499.09 c 0
 1182.01 494.564 1182.19 490.068 1182.19 485.687 c 0
 1182.19 462.85 1179.35 442.287 1175 424 c 1
 1146 287 1034 0 598 0 c 1
 121 0 l 1
 430 1456 l 1
EndSplineSet
EndChar
StartChar: C
Encoding: 35 67 90
Width: 1220
Flags: HMW
Fore
1229 293 m 0
 1134 133 959 -29 694 -29 c 0
 366.762 -29 229.008 205.294 229.008 497.694 c 0
 229.008 570.751 237.608 647.436 254 725 c 0
 337 1114 611 1495 1020 1495 c 0
 1285 1495 1388 1327 1407 1194 c 9
 1345 1178 1249 1153 1249 1153 c 0
 1236 1276 1126 1354 990 1354 c 1
 988 1354 l 0
 700 1354 486 1037 420 725 c 0
 406.271 660.191 399.39 596.524 399.39 536.179 c 0
 399.39 297.632 506.916 111 724 111 c 0
 868 111 1025 215 1091 334 c 9
 1145 318 1229 293 1229 293 c 0
EndSplineSet
EndChar
StartChar: D
Encoding: 36 68 91
Width: 1220
Flags: HMW
Fore
1142 727 m 0
 1153.78 783.205 1161 844.135 1161 904.762 c 0
 1161 1111.65 1077 1315 804 1315 c 1
 559 1315 l 1
 309 141 l 1
 554 141 l 1
 902 141 1068 381 1142 727 c 0
1308 727 m 0
 1221 319 942 0 565 0 c 1
 121 0 l 1
 430 1456 l 1
 874 1456 l 2
 1182.49 1456 1329.61 1219.64 1329.61 927.726 c 0
 1329.61 862.897 1322.36 795.328 1308 727 c 0
EndSplineSet
EndChar
StartChar: E
Encoding: 37 69 92
Width: 1142
Flags: HMW
Fore
430 1456 m 0
 1351 1456 l 1
 1322 1315 l 0
 559 1315 l 0
 453 817 l 1
 1173 817 l 1
 1143 676 l 0
 423 676 l 0
 309 141 l 0
 1072 141 l 0
 1042 0 l 0
 121 0 l 1
 430 1456 l 0
EndSplineSet
KernsSLIFO: 105 41 0 0
EndChar
StartChar: F
Encoding: 38 70 93
Width: 1146
Flags: HMW
Fore
430 1456 m 1
 1351 1456 l 1
 1322 1315 l 25
 559 1315 l 25
 453 817 l 1
 1173 817 l 1
 1143 676 l 25
 423 676 l 1
 279 0 l 1
 121 0 l 1
 430 1456 l 1
EndSplineSet
EndChar
StartChar: G
Encoding: 39 71 94
Width: 1363
Flags: HMW
Fore
694 -29 m 0
 379.031 -29 231.443 213.505 231.443 514.494 c 0
 231.443 584.283 239.377 657.216 255 731 c 0
 328 1071 609 1495 1020 1495 c 0
 1244 1495 1345 1401 1405 1260 c 9
 1345 1233 1252 1192 1252 1192 c 0
 1204 1288 1142 1354 990 1354 c 1
 702 1354 479 1004 421 731 c 0
 408.064 670.074 401.309 607.58 401.309 546.825 c 0
 401.309 316.404 498.466 111 724 111 c 0
 1017 111 1160 389 1195 555 c 1
 802 555 l 1
 832 696 l 1
 1381 696 l 1
 1363 610 l 1
 1301 319 1073 -29 700 -29 c 0
 694 -29 l 0
EndSplineSet
KernsSLIFO: 107 -68 0 0
EndChar
StartChar: H
Encoding: 40 72 95
Width: 1198
Flags: HMW
Fore
430 1456 m 0
 588 1456 l 1
 452 815 l 1
 1113 815 l 1
 1249 1456 l 1
 1407 1456 l 1
 1098 0 l 1
 940 0 l 1
 1083 674 l 0
 422 674 l 1
 279 0 l 1
 121 0 l 1
 430 1456 l 0
EndSplineSet
EndChar
StartChar: I
Encoding: 41 73 96
Width: 444
Flags: HMW
Fore
154 0 m 1
 463 1456 l 1
 620 1456 l 1
 311 0 l 1
 154 0 l 1
EndSplineSet
EndChar
StartChar: J
Encoding: 42 74 97
Width: 1140
Flags: HMW
Fore
227 535 m 0
 368 535 l 1
 360 500 357 464 356 430 c 0
 356 270 435 121 591 121 c 1
 784 121 941 334 984 535 c 2
 1179 1456 l 1
 1337 1456 l 1
 1142 535 l 2
 1072 209 834 -29 559 -29 c 1
 334 -29 209 144 209 378 c 0
 209 427 215 480 227 535 c 0
EndSplineSet
EndChar
StartChar: K
Encoding: 43 75 98
Width: 1239
Flags: HMW
Fore
430 1456 m 0
 588 1456 l 1
 428 702 l 1
 1335 1456 l 1
 1528 1456 l 1
 742 803 l 1
 1235 0 l 1
 1028 0 l 1
 616 702 l 1
 389 516 l 1
 279 0 l 1
 121 0 l 1
 430 1456 l 0
EndSplineSet
KernsSLIFO: 102 -109 0 0
EndChar
StartChar: L
Encoding: 44 76 99
Width: 1105
Flags: HMW
Fore
430 1456 m 1
 588 1456 l 1
 309 141 l 1
 1074 141 l 1
 1044 0 l 1
 121 0 l 1
 430 1456 l 1
EndSplineSet
EndChar
StartChar: M
Encoding: 45 77 100
Width: 1562
Flags: HMW
Fore
121 0 m 1
 430 1456 l 2
 645 1456 l 1
 839 209 l 2
 1564 1456 l 1
 1771 1456 l 1
 1462 0 l 1
 1309 0 l 25
 1565 1204 l 1
 884 16 l 0
 705 16 l 1
 530 1204 l 0
 274 0 l 1
 121 0 l 1
EndSplineSet
EndChar
StartChar: N
Encoding: 46 78 101
Width: 1271
Flags: HMW
Fore
121 0 m 1
 430 1456 l 2
 583 1456 l 1
 1077 295 l 25
 1323 1456 l 1
 1480 1456 l 1
 1171 0 l 0
 1026 0 l 1
 532 1190 l 0
 279 0 l 1
 121 0 l 1
EndSplineSet
EndChar
StartChar: O
Encoding: 47 79 102
Width: 1333
Flags: HMW
Fore
1250 725 m 0
 1265 797 1275 876 1275 952 c 0
 1275 1161 1201 1354 964 1354 c 0
 642 1354 469 995 412 725 c 1
 397 655 388 580 388 507 c 0
 388 300 464 113 700 113 c 1
 1021 113 1193 457 1250 725 c 0
246 725 m 1
 315 1047 566 1495 994 1495 c 1
 1329 1495 1440 1222 1440 950 c 0
 1440 873 1431 796 1416 725 c 1
 1348 406 1098 -29 670 -29 c 1
 336 -29 224 238 223 508 c 0
 223 582 231 656 246 725 c 1
EndSplineSet
KernsSLIFO: 88 -98 0 0 107 -113 0 0
EndChar
StartChar: P
Encoding: 48 80 103
Width: 1099
Flags: HMW
Fore
444 774 m 1
 650 774 l 1
 970 774 1065 918 1093 1047 c 0
 1100.69 1083.55 1099.01 1095.51 1099.01 1109.35 c 0
 1099.01 1209.65 1034.89 1315 765 1315 c 1
 559 1315 l 1
 444 774 l 1
430 1456 m 0
 588 1456 l 1
 794 1456 l 1
 1110 1456 1264 1322 1265 1132 c 0
 1264 1104 1261 1076 1255 1047 c 0
 1207 821 998 631 619 631 c 1
 413 631 l 1
 279 0 l 1
 121 0 l 1
 430 1456 l 0
EndSplineSet
KernsSLIFO: 88 -137 0 0
EndChar
StartChar: Q
Encoding: 49 81 104
Width: 1370
Flags: HMW
Back
1273.04 83.6143 m 5
 1186.51 -32.9658 l 5
 699.626 328.428 l 5
 786.157 445.006 l 5
 1273.04 83.6143 l 5
1101.68 725.914 m 0
 1101.68 994.929 994.929 1353.62 672.539 1353.62 c 0
 350.146 1353.62 243.395 994.929 243.395 725.914 c 1
 243.395 456.898 352.282 111.022 672.539 111.022 c 1
 992.795 111.022 1101.68 456.898 1101.68 725.914 c 0
93.9424 725.914 m 1
 93.9424 1046.17 243.395 1494.53 672.539 1494.53 c 1
 1101.68 1494.53 1251.13 1046.17 1251.13 725.914 c 1
 1251.13 405.657 1099.55 -29.8896 672.539 -29.8896 c 1
 245.53 -29.8896 93.9424 405.657 93.9424 725.914 c 1
EndSplineSet
Fore
1258 725 m 1
 1273 797 1283 873 1283 945 c 0
 1282 1163 1200 1354 962 1354 c 1
 685 1354 481 1047 412 725 c 1
 398.709 664.241 389.924 596.272 389.924 527.082 c 0
 389.924 517.996 389.99 522.539 389.99 511.939 c 0
 389.99 309.368 464.679 113 716 113 c 1
 784 113 886 141 943 188 c 1
 785 330 l 1
 898 446 l 1
 1064 297 l 1
 1155 395 1216 528 1258 725 c 1
246 725 m 1
 315 1047 574 1495 994 1495 c 1
 1331.53 1495 1446.01 1220.4 1446.01 946.58 c 0
 1446.01 941.22 1446.08 935.918 1446.08 930.581 c 0
 1446.08 860.633 1438.16 790.143 1424 725 c 1
 1378 506 1266 309 1166 207 c 1
 1306 86 l 1
 1191 -31 l 1
 1046 96 l 1
 948 29 844 -29 682 -29 c 1
 339 -29 223 237 223 509 c 0
 223 582 231 656 246 725 c 1
EndSplineSet
EndChar
StartChar: R
Encoding: 50 82 105
Width: 1101
Flags: HMW
Back
268.288 774.145 m 5
 475.136 774.145 l 5
 794.624 774.145 860.16 917.504 860.16 1046.53 c 5
 860.16 1159.17 802.816 1314.82 475.136 1314.82 c 5
 268.288 1314.82 l 5
 268.288 774.145 l 5
110.592 1456.13 m 4
 268.288 1456.13 l 5
 475.136 1456.13 l 5
 835.584 1454.08 1021.95 1282.05 1021.95 1046.53 c 4
 1021.95 821.248 854.016 630.784 475.136 630.784 c 5
 268.288 630.784 l 5
 268.288 0 l 5
 110.592 0 l 5
 110.592 1456.13 l 4
EndSplineSet
Fore
444 774 m 1
 650 774 l 1
 976 774 1067 926 1093 1047 c 0
 1097.31 1067.89 1099.57 1088.01 1099.57 1107.2 c 0
 1099.57 1230.4 1006.4 1315 765 1315 c 2
 559 1315 l 1
 444 774 l 1
923 0 m 1
 628 631 l 1
 413 631 l 1
 279 0 l 1
 121 0 l 1
 430 1456 l 0
 588 1456 l 1
 794 1456 l 1
 1071.65 1456 1266.14 1341.17 1266.14 1129.84 c 0
 1266.14 1103.69 1263.17 1076.07 1257 1047 c 0
 1215 850 1039 688 808 648 c 1
 1104 0 l 1
 923 0 l 1
EndSplineSet
EndChar
StartChar: S
Encoding: 51 83 106
Width: 1079
Flags: HMWO
Back
75.8164 395.264 m 0
 75.8164 630.407 293.161 821.248 571.054 821.248 c 0
 848.947 821.248 1066.29 630.407 1066.29 395.264 c 0
 1066.29 160.12 848.947 -30.7197 571.054 -30.7197 c 0
 293.161 -30.7197 75.8164 160.12 75.8164 395.264 c 0
233.994 397.312 m 0
 233.994 555.581 384.03 684.032 568.894 684.032 c 0
 753.756 684.032 903.793 555.581 903.793 397.312 c 0
 903.793 239.043 753.756 110.592 568.894 110.592 c 0
 384.03 110.592 233.994 239.043 233.994 397.312 c 0
114.688 1105.92 m 4
 114.688 1320.71 317.456 1495.04 567.296 1495.04 c 0
 817.136 1495.04 1019.9 1320.71 1019.9 1105.92 c 0
 1019.9 891.126 817.136 716.8 567.296 716.8 c 0
 317.456 716.8 114.688 891.126 114.688 1105.92 c 4
276.48 1107.97 m 4
 276.48 1243.63 405.848 1353.73 565.248 1353.73 c 0
 724.648 1353.73 854.016 1243.63 854.016 1107.97 c 0
 854.016 972.309 724.648 862.208 565.248 862.208 c 0
 405.848 862.208 276.48 972.309 276.48 1107.97 c 4
EndSplineSet
Fore
115 327 m 1
 291 358 l 1
 294 252 400 113 563 113 c 1
 745 113 926 214 960 371 c 0
 963.516 387.556 965.17 403.408 965.17 418.593 c 0
 965.17 610.693 700.429 695.882 592 745 c 0
 478.545 796.964 344.838 866.93 344.838 1045.19 c 0
 344.838 1072.76 348.036 1102.92 355 1136 c 0
 403 1361 623 1495 857 1495 c 1
 1096 1495 1231 1360 1247 1194 c 1
 1090 1169 l 1
 1081 1256 986 1354 827 1354 c 1
 673 1354 544 1260 517 1136 c 0
 513.057 1117.15 511.195 1099.74 511.195 1083.59 c 0
 511.195 931.8 675.675 891.787 823 824 c 0
 951.361 764.216 1122.23 667.329 1122.23 459.946 c 0
 1122.23 431.448 1119.01 400.862 1112 368 c 0
 1055 99 803 -29 533 -29 c 1
 262 -29 144 132 115 327 c 1
EndSplineSet
EndChar
StartChar: T
Encoding: 52 84 107
Width: 1243
Flags: HMW
Fore
397 1456 m 0
 1489 1456 l 1
 1460 1315 l 0
 1003 1315 l 1
 723 0 l 1
 565 0 l 1
 845 1315 l 1
 368 1315 l 1
 397 1456 l 0
EndSplineSet
KernsSLIFO: 41 -135 0 0 88 -111 0 0
EndChar
StartChar: U
Encoding: 53 85 108
Width: 1265
Flags: HMW
Back
272.384 1456.13 m 5
 110.592 1456.13 l 5
 110.592 661.504 l 5
 110.592 239.616 307.2 -30.7197 632.832 -30.7197 c 4
 958.47 -30.7197 1155.07 239.616 1155.07 661.504 c 5
 1155.07 1456.13 l 5
 993.28 1456.13 l 5
 993.28 661.504 l 5
 993.28 290.816 827.392 110.592 632.832 110.592 c 5
 438.272 110.592 274.432 290.816 272.384 661.504 c 5
 272.384 1456.13 l 5
EndSplineSet
Fore
1313 1456 m 1
 1474 1456 l 1
 1302 645 l 1
 1212 223 965 -29 637 -29 c 0
 374 -29 231 132 231 414 c 0
 231 484 240 561 258 645 c 1
 430 1456 l 1
 592 1456 l 1
 420 645 l 1
 404.892 574.18 396.917 511.384 396.917 454.929 c 0
 396.917 451.598 396.944 448.288 397 445 c 0
 397 215 512 113 667 113 c 1
 862 113 1062 274 1141 645 c 1
 1313 1456 l 1
EndSplineSet
EndChar
StartChar: V
Encoding: 54 86 109
Width: 1245
Flags: HMW
Fore
1331 1456 m 1
 1495 1456 l 1
 745 0 l 1
 526 0 l 1
 389 1456 l 1
 559 1456 l 1
 671 168 l 1
 1331 1456 l 1
EndSplineSet
KernsSLIFO: 124 -66 0 0 88 -244 0 0 92 -70 0 0
EndChar
StartChar: W
Encoding: 55 87 110
Width: 1576
Flags: HMW
Fore
393 1456 m 1
 553 1456 l 1
 467 182 l 0
 1004 1419 l 1
 1199 1419 l 0
 1210 182 l 1
 1665 1456 l 25
 1825 1456 l 1
 1286 0 l 1
 1067 0 l 1
 1062 1229 l 2
 535 0 l 1
 311 0 l 2
 393 1456 l 1
EndSplineSet
KernsSLIFO: 124 -27 0 0 88 -96 0 0
EndChar
StartChar: X
Encoding: 56 88 111
Width: 1214
Flags: HMW
Fore
383 1456 m 0
 565 1456 l 1
 799 850 l 1
 1282 1456 l 1
 1464 1456 l 1
 857 729 l 1
 1161 0 l 1
 971 0 l 1
 743 586 l 1
 258 0 l 1
 80 0 l 1
 690 729 l 1
 383 1456 l 0
EndSplineSet
EndChar
StartChar: Y
Encoding: 57 89 112
Width: 1179
Flags: HMW
Fore
385 1456 m 1
 553 1456 l 1
 782 856 l 1
 1265 1456 l 1
 1433 1456 l 1
 837 748 l 1
 678 0 l 1
 520 0 l 1
 679 748 l 1
 385 1456 l 1
EndSplineSet
KernsSLIFO: 88 -190 0 0 120 -127 0 0
EndChar
StartChar: Z
Encoding: 58 90 113
Width: 1325
Flags: HMW
Fore
438 1456 m 1
 1542 1456 l 1
 399 141 l 1
 1275 141 l 1
 1245 0 l 1
 100 0 l 1
 1253 1315 l 1
 409 1315 l 1
 438 1456 l 1
EndSplineSet
EndChar
StartChar: bracketleft
Encoding: 59 91 114
Width: 626
Flags: HMW
Fore
506 -96 m 0
 111 -96 l 1
 456 1530 l 0
 851 1530 l 1
 821 1389 l 1
 576 1389 l 1
 290 43 l 1
 535 43 l 1
 506 -96 l 0
EndSplineSet
EndChar
StartChar: backslash
Encoding: 60 92 115
Width: 811
Flags: HMW
Fore
690 0 m 1
 299 1544 l 1
 471 1544 l 0
 860 0 l 1
 690 0 l 1
EndSplineSet
KernsSLIFO: 115 -143 0 0
EndChar
StartChar: bracketright
Encoding: 61 93 116
Width: 638
Flags: HMW
Fore
109 -96 m 0
 139 45 l 1
 385 45 l 1
 670 1389 l 1
 424 1389 l 1
 454 1530 l 1
 849 1530 l 0
 504 -96 l 1
 109 -96 l 0
EndSplineSet
EndChar
StartChar: asciicircum
Encoding: 62 94 117
Width: 927
Flags: HMW
Fore
1065 1149 m 1
 877 1149 l 1
 767 1362 l 1
 564 1151 l 0
 378 1151 l 1
 727 1493 l 1
 858 1493 l 1
 1065 1149 l 1
EndSplineSet
EndChar
StartChar: underscore
Encoding: 63 95 118
Width: 1241
Flags: HMW
Fore
39 -231 m 1
 69 -90 l 1
 1159 -90 l 1
 1129 -231 l 1
 39 -231 l 1
EndSplineSet
EndChar
StartChar: grave
Encoding: 64 96 119
Width: 516
Flags: HMW
Fore
602 1160 m 1
 421 1447 l 1
 415.762 1456.6 412.81 1466.21 412.81 1475.81 c 0
 412.81 1483.53 412.586 1482.68 412.586 1484.39 c 0
 412.586 1487.93 413.293 1491.46 414 1495 c 0
 419 1519 437 1541 458 1553 c 0
 473 1563 491 1569 508 1569 c 0
 528 1569 547 1560 560 1537 c 1
 703 1226 l 1
 704 1220 706 1215 706 1209 c 0
 706 1206 706 1203 705 1200 c 0
 701 1182 687 1164 672 1155 c 0
 660 1147 647 1143 635 1143 c 0
 622 1143 610 1148 602 1160 c 1
EndSplineSet
EndChar
StartChar: a
Encoding: 65 97 120
Width: 993
Flags: HMW
Back
143.36 1474.56 m 29
 143.36 -53.248 l 29
430.08 1466.37 m 29
 430.08 -61.4404 l 29
286.72 -69.6318 m 29
 286.72 1458.18 l 29
 286.72 -69.6318 l 29
573.44 1470.46 m 29
 573.44 -57.3438 l 29
716.8 1466.37 m 29
 716.8 -61.4404 l 29
860.16 -49.1523 m 29
 860.16 1478.66 l 29
 860.16 -49.1523 l 29
143.36 1474.56 m 29
 143.36 -53.248 l 29
430.08 1466.37 m 29
 430.08 -61.4404 l 29
286.72 -69.6318 m 29
 286.72 1458.18 l 29
 286.72 -69.6318 l 29
573.44 1470.46 m 29
 573.44 -57.3438 l 29
716.8 1466.37 m 29
 716.8 -61.4404 l 29
860.16 -49.1523 m 29
 860.16 1478.66 l 29
 860.16 -49.1523 l 29
143.36 1474.56 m 29
 143.36 -53.248 l 29
430.08 1466.37 m 29
 430.08 -61.4404 l 29
286.72 -69.6318 m 29
 286.72 1458.18 l 29
 286.72 -69.6318 l 29
573.44 1470.46 m 29
 573.44 -57.3438 l 29
716.8 1466.37 m 29
 716.8 -61.4404 l 29
860.16 -49.1523 m 29
 860.16 1478.66 l 29
 860.16 -49.1523 l 29
143.36 1474.56 m 29
 143.36 -53.248 l 29
430.08 1466.37 m 29
 430.08 -61.4404 l 29
286.72 -69.6318 m 29
 286.72 1458.18 l 29
 286.72 -69.6318 l 29
573.44 1470.46 m 29
 573.44 -57.3438 l 29
716.8 1466.37 m 29
 716.8 -61.4404 l 29
860.16 -49.1523 m 29
 860.16 1478.66 l 29
 860.16 -49.1523 l 29
143.36 1474.56 m 29
 143.36 -53.248 l 29
430.08 1466.37 m 29
 430.08 -61.4404 l 29
286.72 -69.6318 m 29
 286.72 1458.18 l 29
 286.72 -69.6318 l 29
573.44 1470.46 m 29
 573.44 -57.3438 l 29
716.8 1466.37 m 29
 716.8 -61.4404 l 29
860.16 -49.1523 m 29
 860.16 1478.66 l 29
 860.16 -49.1523 l 29
143.36 1474.56 m 29
 143.36 -53.248 l 29
430.08 1466.37 m 29
 430.08 -61.4404 l 29
286.72 -69.6318 m 29
 286.72 1458.18 l 29
 286.72 -69.6318 l 29
573.44 1470.46 m 29
 573.44 -57.3438 l 29
716.8 1466.37 m 29
 716.8 -61.4404 l 29
860.16 -49.1523 m 29
 860.16 1478.66 l 29
 860.16 -49.1523 l 29
143.36 1474.56 m 29
 143.36 -53.248 l 29
430.08 1466.37 m 29
 430.08 -61.4404 l 29
286.72 -69.6318 m 29
 286.72 1458.18 l 29
 286.72 -69.6318 l 29
573.44 1470.46 m 29
 573.44 -57.3438 l 29
716.8 1466.37 m 29
 716.8 -61.4404 l 29
860.16 -49.1523 m 29
 860.16 1478.66 l 29
 860.16 -49.1523 l 29
143.36 1474.56 m 29
 143.36 -53.248 l 29
430.08 1466.37 m 29
 430.08 -61.4404 l 29
286.72 -69.6318 m 29
 286.72 1458.18 l 29
 286.72 -69.6318 l 29
573.44 1470.46 m 29
 573.44 -57.3438 l 29
716.8 1466.37 m 29
 716.8 -61.4404 l 29
860.16 -49.1523 m 29
 860.16 1478.66 l 29
 860.16 -49.1523 l 29
143.36 1474.56 m 29
 143.36 -53.248 l 29
430.08 1466.37 m 29
 430.08 -61.4404 l 29
286.72 -69.6318 m 29
 286.72 1458.18 l 29
 286.72 -69.6318 l 29
573.44 1470.46 m 29
 573.44 -57.3438 l 29
716.8 1466.37 m 29
 716.8 -61.4404 l 29
860.16 -49.1523 m 29
 860.16 1478.66 l 29
 860.16 -49.1523 l 29
143.36 1474.56 m 29
 143.36 -53.248 l 29
430.08 1466.37 m 29
 430.08 -61.4404 l 29
286.72 -69.6318 m 29
 286.72 1458.18 l 29
 286.72 -69.6318 l 29
573.44 1470.46 m 29
 573.44 -57.3438 l 29
716.8 1466.37 m 29
 716.8 -61.4404 l 29
860.16 -49.1523 m 29
 860.16 1478.66 l 29
 860.16 -49.1523 l 29
143.36 1474.56 m 29
 143.36 -53.248 l 29
430.08 1466.37 m 29
 430.08 -61.4404 l 29
286.72 -69.6318 m 29
 286.72 1458.18 l 29
 286.72 -69.6318 l 29
573.44 1470.46 m 29
 573.44 -57.3438 l 29
716.8 1466.37 m 29
 716.8 -61.4404 l 29
860.16 -49.1523 m 29
 860.16 1478.66 l 29
 860.16 -49.1523 l 29
143.36 1474.56 m 29
 143.36 -53.248 l 29
430.08 1466.37 m 29
 430.08 -61.4404 l 29
286.72 -69.6318 m 29
 286.72 1458.18 l 29
 286.72 -69.6318 l 29
573.44 1470.46 m 29
 573.44 -57.3438 l 29
716.8 1466.37 m 29
 716.8 -61.4404 l 29
860.16 -49.1523 m 29
 860.16 1478.66 l 29
 860.16 -49.1523 l 29
143.36 1474.56 m 29
 143.36 -53.248 l 29
430.08 1466.37 m 29
 430.08 -61.4404 l 29
286.72 -69.6318 m 29
 286.72 1458.18 l 29
 286.72 -69.6318 l 29
573.44 1470.46 m 29
 573.44 -57.3438 l 29
716.8 1466.37 m 29
 716.8 -61.4404 l 29
860.16 -49.1523 m 29
 860.16 1478.66 l 29
 860.16 -49.1523 l 29
143.36 1474.56 m 29
 143.36 -53.248 l 29
430.08 1466.37 m 29
 430.08 -61.4404 l 29
286.72 -69.6318 m 29
 286.72 1458.18 l 29
 286.72 -69.6318 l 29
573.44 1470.46 m 29
 573.44 -57.3438 l 29
716.8 1466.37 m 29
 716.8 -61.4404 l 29
860.16 -49.1523 m 29
 860.16 1478.66 l 29
 860.16 -49.1523 l 29
143.36 1474.56 m 29
 143.36 -53.248 l 29
430.08 1466.37 m 29
 430.08 -61.4404 l 29
286.72 -69.6318 m 29
 286.72 1458.18 l 29
 286.72 -69.6318 l 29
573.44 1470.46 m 29
 573.44 -57.3438 l 29
716.8 1466.37 m 29
 716.8 -61.4404 l 29
860.16 -49.1523 m 29
 860.16 1478.66 l 29
 860.16 -49.1523 l 29
143.36 1474.56 m 29
 143.36 -53.248 l 29
430.08 1466.37 m 29
 430.08 -61.4404 l 29
286.72 -69.6318 m 29
 286.72 1458.18 l 29
 286.72 -69.6318 l 29
573.44 1470.46 m 29
 573.44 -57.3438 l 29
716.8 1466.37 m 29
 716.8 -61.4404 l 29
860.16 -49.1523 m 29
 860.16 1478.66 l 29
 860.16 -49.1523 l 29
143.36 1474.56 m 25
 143.36 -53.248 l 25
430.08 1466.37 m 25
 430.08 -61.4404 l 25
286.72 -69.6318 m 25
 286.72 1458.18 l 25
 286.72 -69.6318 l 25
573.44 1470.46 m 25
 573.44 -57.3438 l 25
716.8 1466.37 m 25
 716.8 -61.4404 l 25
860.16 -49.1523 m 25
 860.16 1478.66 l 25
 860.16 -49.1523 l 25
143.36 1474.56 m 25
 143.36 -53.248 l 25
430.08 1466.37 m 25
 430.08 -61.4404 l 25
286.72 -69.6318 m 25
 286.72 1458.18 l 25
 286.72 -69.6318 l 25
573.44 1470.46 m 25
 573.44 -57.3438 l 25
716.8 1466.37 m 25
 716.8 -61.4404 l 25
860.16 -49.1523 m 25
 860.16 1478.66 l 25
 860.16 -49.1523 l 25
143.36 1474.56 m 25
 143.36 -53.248 l 25
430.08 1466.37 m 25
 430.08 -61.4404 l 25
286.72 -69.6318 m 25
 286.72 1458.18 l 25
 286.72 -69.6318 l 25
573.44 1470.46 m 25
 573.44 -57.3438 l 25
716.8 1466.37 m 25
 716.8 -61.4404 l 25
860.16 -49.1523 m 25
 860.16 1478.66 l 25
 860.16 -49.1523 l 25
143.36 1474.56 m 25
 143.36 -53.248 l 25
430.08 1466.37 m 25
 430.08 -61.4404 l 25
286.72 -69.6318 m 25
 286.72 1458.18 l 25
 286.72 -69.6318 l 25
573.44 1470.46 m 25
 573.44 -57.3438 l 25
716.8 1466.37 m 25
 716.8 -61.4404 l 25
860.16 -49.1523 m 25
 860.16 1478.66 l 25
 860.16 -49.1523 l 25
143.36 1474.56 m 25
 143.36 -53.248 l 25
430.08 1466.37 m 25
 430.08 -61.4404 l 25
286.72 -69.6318 m 25
 286.72 1458.18 l 25
 286.72 -69.6318 l 25
573.44 1470.46 m 25
 573.44 -57.3438 l 25
716.8 1466.37 m 25
 716.8 -61.4404 l 25
860.16 -49.1523 m 25
 860.16 1478.66 l 25
 860.16 -49.1523 l 25
143.36 1474.56 m 25
 143.36 -53.248 l 25
430.08 1466.37 m 25
 430.08 -61.4404 l 25
286.72 -69.6318 m 25
 286.72 1458.18 l 25
 286.72 -69.6318 l 25
573.44 1470.46 m 25
 573.44 -57.3438 l 25
716.8 1466.37 m 25
 716.8 -61.4404 l 25
860.16 -49.1523 m 25
 860.16 1478.66 l 25
 860.16 -49.1523 l 25
143.36 1474.56 m 25
 143.36 -53.248 l 25
430.08 1466.37 m 25
 430.08 -61.4404 l 25
286.72 -69.6318 m 25
 286.72 1458.18 l 25
 286.72 -69.6318 l 25
573.44 1470.46 m 25
 573.44 -57.3438 l 25
716.8 1466.37 m 25
 716.8 -61.4404 l 25
860.16 -49.1523 m 25
 860.16 1478.66 l 25
 860.16 -49.1523 l 25
143.36 1474.56 m 25
 143.36 -53.248 l 25
430.08 1466.37 m 25
 430.08 -61.4404 l 25
286.72 -69.6318 m 25
 286.72 1458.18 l 25
 286.72 -69.6318 l 25
573.44 1470.46 m 25
 573.44 -57.3438 l 25
716.8 1466.37 m 25
 716.8 -61.4404 l 25
860.16 -49.1523 m 25
 860.16 1478.66 l 25
 860.16 -49.1523 l 25
143.36 1474.56 m 25
 143.36 -53.248 l 25
430.08 1466.37 m 25
 430.08 -61.4404 l 25
286.72 -69.6318 m 25
 286.72 1458.18 l 25
 286.72 -69.6318 l 25
573.44 1470.46 m 25
 573.44 -57.3438 l 25
716.8 1466.37 m 25
 716.8 -61.4404 l 25
860.16 -49.1523 m 25
 860.16 1478.66 l 25
 860.16 -49.1523 l 25
143.36 1474.56 m 25
 143.36 -53.248 l 25
430.08 1466.37 m 25
 430.08 -61.4404 l 25
286.72 -69.6318 m 25
 286.72 1458.18 l 25
 286.72 -69.6318 l 25
573.44 1470.46 m 25
 573.44 -57.3438 l 25
716.8 1466.37 m 25
 716.8 -61.4404 l 25
860.16 -49.1523 m 25
 860.16 1478.66 l 25
 860.16 -49.1523 l 25
143.36 1474.56 m 25
 143.36 -53.248 l 25
430.08 1466.37 m 25
 430.08 -61.4404 l 25
286.72 -69.6318 m 25
 286.72 1458.18 l 25
 286.72 -69.6318 l 25
573.44 1470.46 m 25
 573.44 -57.3438 l 25
716.8 1466.37 m 25
 716.8 -61.4404 l 25
860.16 -49.1523 m 25
 860.16 1478.66 l 25
 860.16 -49.1523 l 25
143.36 1474.56 m 25
 143.36 -53.248 l 25
430.08 1466.37 m 25
 430.08 -61.4404 l 25
286.72 -69.6318 m 25
 286.72 1458.18 l 25
 286.72 -69.6318 l 25
573.44 1470.46 m 25
 573.44 -57.3438 l 25
716.8 1466.37 m 25
 716.8 -61.4404 l 25
860.16 -49.1523 m 25
 860.16 1478.66 l 25
 860.16 -49.1523 l 25
143.36 1474.56 m 25
 143.36 -53.248 l 25
430.08 1466.37 m 25
 430.08 -61.4404 l 25
286.72 -69.6318 m 25
 286.72 1458.18 l 25
 286.72 -69.6318 l 25
573.44 1470.46 m 25
 573.44 -57.3438 l 25
716.8 1466.37 m 25
 716.8 -61.4404 l 25
860.16 -49.1523 m 25
 860.16 1478.66 l 25
 860.16 -49.1523 l 25
143.36 1474.56 m 25
 143.36 -53.248 l 25
430.08 1466.37 m 25
 430.08 -61.4404 l 25
286.72 -69.6318 m 25
 286.72 1458.18 l 25
 286.72 -69.6318 l 25
573.44 1470.46 m 25
 573.44 -57.3438 l 25
716.8 1466.37 m 25
 716.8 -61.4404 l 25
860.16 -49.1523 m 25
 860.16 1478.66 l 25
 860.16 -49.1523 l 25
143.36 1474.56 m 25
 143.36 -53.248 l 25
430.08 1466.37 m 25
 430.08 -61.4404 l 25
286.72 -69.6318 m 25
 286.72 1458.18 l 25
 286.72 -69.6318 l 25
573.44 1470.46 m 25
 573.44 -57.3438 l 25
716.8 1466.37 m 25
 716.8 -61.4404 l 25
860.16 -49.1523 m 25
 860.16 1478.66 l 25
 860.16 -49.1523 l 25
143.36 1474.56 m 25
 143.36 -53.248 l 25
430.08 1466.37 m 25
 430.08 -61.4404 l 25
286.72 -69.6318 m 25
 286.72 1458.18 l 25
 286.72 -69.6318 l 25
573.44 1470.46 m 25
 573.44 -57.3438 l 25
716.8 1466.37 m 25
 716.8 -61.4404 l 25
860.16 -49.1523 m 25
 860.16 1478.66 l 25
 860.16 -49.1523 l 25
EndSplineSet
Fore
613 582 m 0
 462 582 339 473 311 344 c 0
 307.25 326.282 305.439 309.167 305.439 292.794 c 0
 305.439 182.565 387.494 106 512 106 c 0
 639 106 772 211 800 344 c 0
 803.772 361.399 805.545 378.087 805.545 393.979 c 0
 805.545 508.711 713.13 582 613 582 c 0
609 717 m 0
 764 717 842 610 844 559 c 1
 864 655 l 1
 871.78 691.759 875.625 725.529 875.625 756.083 c 0
 875.625 882.627 809.66 954 684 954 c 0
 590 954 497 922 442 877 c 1
 387 981 l 1
 469 1038 570 1090 713 1090 c 0
 891.507 1090 1018.97 982.234 1018.97 779.239 c 0
 1018.97 741.151 1014.48 699.71 1005 655 c 2
 979 532 l 2
 866 0 l 1
 727 0 l 1
 760 156 l 0
 761 158 l 1
 744 109 605 -29 450 -29 c 0
 267.149 -29 146.938 79.3314 146.938 252.975 c 0
 146.938 281.605 150.206 312.011 157 344 c 0
 203 559 404 717 609 717 c 0
EndSplineSet
KernsSLIFO: 42 -123 0 0
EndChar
StartChar: b
Encoding: 66 98 121
Width: 1044
Flags: HMW
Back
281 0 m 13
 129 0 l 5
 129 1454 l 5
 281 1454 l 5
 281 892 l 21
 324 1006 428 1102 586 1102 c 4
 812 1102 956 940 956 627 c 5
 956 0 l 5
 805 0 l 4
 805 527 l 5
 805 768 760 965 546 965 c 4
 332 965 281 780 281 540 c 4
 281 0 l 13
143.36 1474.56 m 25
 143.36 -53.248 l 25
430.08 1466.37 m 25
 430.08 -61.4404 l 25
286.72 -69.6318 m 25
 286.72 1458.18 l 25
 286.72 -69.6318 l 25
573.44 1470.46 m 25
 573.44 -57.3438 l 25
716.8 1466.37 m 25
 716.8 -61.4404 l 25
860.16 -49.1523 m 25
 860.16 1478.66 l 25
 860.16 -49.1523 l 25
EndSplineSet
Fore
590 1454 m 9
 469 886 l 1
 540 996 642 1102 814 1102 c 0
 1028.45 1102 1112.09 941.268 1112.09 736.17 c 0
 1112.09 673.484 1104.28 606.653 1090 539 c 0
 1029 254 854 -29 572 -29 c 0
 398 -29 344 76 320 184 c 9
 281 0 l 1
 129 0 l 1
 438 1454 l 1
 590 1454 l 9
936 539 m 0
 948.212 597.322 953.907 650.014 953.907 696.861 c 0
 953.907 872.515 873.839 966 757 966 c 0
 609 966 449 812 390 537 c 0
 378.225 481.578 372.756 430.896 372.756 385.312 c 0
 372.756 206.36 457.046 106 575 106 c 0
 723 106 877 264 936 539 c 0
EndSplineSet
EndChar
StartChar: c
Encoding: 67 99 122
Width: 921
Flags: HMW
Back
1242 0 m 21
 228 537 l 5
 1242 1074 l 13
86.0156 532.48 m 0
 86.0156 843.366 286.032 1095.68 532.48 1095.68 c 0
 778.928 1095.68 978.944 843.366 978.944 532.48 c 0
 978.944 221.594 778.928 -30.7197 532.48 -30.7197 c 0
 286.032 -30.7197 86.0156 221.594 86.0156 532.48 c 0
239.616 530.432 m 0
 239.616 765.575 370.819 956.416 532.48 956.416 c 0
 694.141 956.416 825.344 765.575 825.344 530.432 c 0
 825.344 295.289 694.141 104.448 532.48 104.448 c 0
 370.819 104.448 239.616 295.289 239.616 530.432 c 0
143.36 1474.56 m 25
 143.36 -53.248 l 25
430.08 1466.37 m 25
 430.08 -61.4404 l 25
286.72 -69.6318 m 25
 286.72 1458.18 l 25
 286.72 -69.6318 l 25
573.44 1470.46 m 25
 573.44 -57.3438 l 25
716.8 1466.37 m 25
 716.8 -61.4404 l 25
860.16 -49.1523 m 25
 860.16 1478.66 l 25
 860.16 -49.1523 l 25
EndSplineSet
Fore
917 809 m 1
 909 866 843 958 741 958 c 1
 575 958 396 784 343 537 c 0
 332.563 487.613 327.649 441.664 327.649 399.587 c 0
 327.649 215.892 421.31 106 558 106 c 0
 682 106 779 217 810 264 c 9
 916 187 l 1
 834 86 694 -29 529 -29 c 1
 306.558 -29 173.653 147.297 173.653 386.553 c 0
 173.653 434.48 178.986 484.932 190 537 c 0
 251 823 483 1094 770 1094 c 0
 932 1094 1022 992 1062 875 c 1
 917 809 l 1
EndSplineSet
EndChar
StartChar: d
Encoding: 68 100 123
Width: 1044
Flags: HMW
Back
761.856 1062.91 m 21
 913.408 1062.91 l 5
 913.408 -391.168 l 5
 761.856 -391.168 l 5
 761.856 163.84 l 21
 700.416 67.7812 626.688 -30.4951 481.28 -28.6719 c 5
 229.376 -28.6719 108.544 256 108.544 538.624 c 4
 108.544 821.248 225.28 1091.58 483.328 1091.58 c 5
 620.544 1091.58 706.56 995.328 761.856 894.976 c 5
 761.856 1062.91 l 21
262.144 538.624 m 4
 262.144 305.152 350.208 106.496 483.328 106.496 c 5
 622.592 106.496 765.952 278.528 765.952 536.576 c 5
 765.952 827.392 595.968 956.416 483.328 956.416 c 4
 352.256 956.416 262.144 778.24 262.144 538.624 c 4
143.36 1474.56 m 25
 143.36 -53.248 l 25
430.08 1466.37 m 25
 430.08 -61.4404 l 25
286.72 -69.6318 m 25
 286.72 1458.18 l 25
 286.72 -69.6318 l 25
573.44 1470.46 m 25
 573.44 -57.3438 l 25
716.8 1466.37 m 25
 716.8 -61.4404 l 25
860.16 -49.1523 m 25
 860.16 1478.66 l 25
 860.16 -49.1523 l 25
EndSplineSet
Fore
1076 1454 m 17
 1228 1454 l 1
 919 0 l 1
 767 0 l 1
 806 184 l 17
 736 76 637 -29 463 -29 c 0
 248.436 -29 165.64 136.584 165.64 341.317 c 0
 165.64 404.709 173.578 471.855 188 539 c 0
 249 828 422 1102 702 1102 c 0
 874 1102 932 996 955 886 c 1
 1076 1454 l 17
342 539 m 0
 329.358 480.077 323.465 426.525 323.465 378.748 c 0
 323.465 203.546 402.711 106 519 106 c 0
 667 106 828 264 886 537 c 0
 898.046 593.148 903.631 644.251 903.631 690.03 c 0
 903.631 868.466 818.782 966 701 966 c 0
 553 966 400 816 342 539 c 0
EndSplineSet
EndChar
StartChar: e
Encoding: 69 101 124
Width: 1013
Flags: HMW
Back
143.36 1474.56 m 25
 143.36 -53.248 l 25
430.08 1466.37 m 25
 430.08 -61.4404 l 25
286.72 -69.6318 m 25
 286.72 1458.18 l 25
 286.72 -69.6318 l 25
573.44 1470.46 m 25
 573.44 -57.3438 l 25
716.8 1466.37 m 25
 716.8 -61.4404 l 25
860.16 -49.1523 m 25
 860.16 1478.66 l 25
 860.16 -49.1523 l 25
EndSplineSet
Fore
385 604 m 1
 907 604 l 1
 911.631 633.768 913.991 663.372 913.991 692.053 c 0
 913.991 836.793 853.87 958 722 958 c 0
 562 958 433 774 385 604 c 1
357 469 m 1
 353.17 439.795 351.173 410.666 351.173 382.333 c 0
 351.173 233.131 406.535 106 541 106 c 0
 635 106 754 162 815 243 c 0
 936 188 l 0
 839 55 667 -29 512 -29 c 0
 298.56 -29 191.84 132.039 191.84 357.054 c 0
 191.84 413.519 198.56 474.012 212 537 c 0
 279 852 485 1094 751 1094 c 0
 966.677 1094 1060.86 923.004 1060.86 719.659 c 0
 1060.86 669.385 1055.1 617.133 1044 565 c 0
 1039 543 1030 492 1025 469 c 1
 357 469 l 1
EndSplineSet
KernsSLIFO: 40 -53 0 0
EndChar
StartChar: f
Encoding: 70 102 125
Width: 716
Flags: HMW
Back
143.36 1474.56 m 25
 143.36 -53.248 l 25
430.08 1466.37 m 25
 430.08 -61.4404 l 25
286.72 -69.6318 m 25
 286.72 1458.18 l 25
 286.72 -69.6318 l 25
573.44 1470.46 m 25
 573.44 -57.3438 l 25
716.8 1466.37 m 25
 716.8 -61.4404 l 25
860.16 -49.1523 m 25
 860.16 1478.66 l 25
 860.16 -49.1523 l 25
EndSplineSet
Fore
615 938 m 0
 416 0 l 1
 264 0 l 1
 463 938 l 0
 324 938 l 1
 353 1073 l 1
 491 1073 l 1
 520 1208 l 0
 555 1376 759 1481 860 1481 c 0
 946 1481 983 1444 1020 1399 c 9
 889 1294 l 17
 873 1323 859 1346 800 1346 c 1
 749 1346 696 1311 682 1249 c 0
 645 1073 l 1
 840 1073 l 1
 811 938 l 1
 615 938 l 0
EndSplineSet
KernsSLIFO: 120 -80 0 0 34 -68 0 0 45 -41 0 0 40 -70 0 0 41 -82 0 0 35 -41 0 0
EndChar
StartChar: g
Encoding: 71 103 126
Width: 1021
Flags: HMW
Back
741.376 1062.91 m 21
 892.928 1062.91 l 5
 892.928 -391.168 l 5
 741.376 -391.168 l 5
 741.376 163.84 l 21
 679.936 67.7822 606.208 -30.4961 460.8 -28.6719 c 5
 208.896 -28.6719 88.0645 256 88.0645 538.624 c 4
 88.0645 821.248 204.8 1091.58 462.848 1091.58 c 5
 600.064 1091.58 686.08 995.328 741.376 894.976 c 5
 741.376 1062.91 l 21
241.664 538.624 m 4
 241.664 305.152 329.728 106.496 462.848 106.496 c 5
 602.112 106.496 745.472 278.528 745.472 536.576 c 5
 745.472 827.392 575.488 956.416 462.848 956.416 c 4
 331.776 956.416 241.664 778.24 241.664 538.624 c 4
1003.52 -49.1523 m 25
 1003.52 1478.66 l 25
 1003.52 -49.1523 l 25
143.36 1474.56 m 25
 143.36 -53.248 l 25
430.08 1466.37 m 25
 430.08 -61.4404 l 25
286.72 -69.6318 m 25
 286.72 1458.18 l 25
 286.72 -69.6318 l 25
573.44 1470.46 m 25
 573.44 -57.3438 l 25
716.8 1466.37 m 25
 716.8 -61.4404 l 25
860.16 -49.1523 m 25
 860.16 1478.66 l 25
 860.16 -49.1523 l 25
EndSplineSet
Fore
915 -18 m 1
 857 -291 620 -449 418 -449 c 0
 177.299 -449 72.741 -275.726 72.741 -135.32 c 0
 72.741 -126.397 73.1634 -117.605 74 -109 c 1
 217 -109 l 17
 216.786 -112.673 216.68 -116.311 216.68 -119.915 c 0
 216.68 -234.063 322.611 -313 437 -313 c 0
 562 -313 719 -225 760 -33 c 0
 767 0 l 2
 806 184 l 17
 736 76 638 -29 464 -29 c 0
 248.617 -29 165.653 136.669 165.653 341.475 c 0
 165.653 404.821 173.59 471.91 188 539 c 0
 249 828 422 1102 702 1102 c 0
 874 1102 932 996 955 886 c 1
 995 1073 l 17
 1147 1073 l 1
 919 0 l 1
 915 -18 l 1
342 539 m 0
 329.358 480.077 323.465 426.525 323.465 378.748 c 0
 323.465 203.546 402.711 106 519 106 c 0
 667 106 828 264 886 537 c 0
 898.046 593.148 903.631 644.251 903.631 690.03 c 0
 903.631 868.466 818.782 966 701 966 c 0
 553 966 400 816 342 539 c 0
EndSplineSet
KernsSLIFO: 129 117 0 0
EndChar
StartChar: h
Encoding: 72 104 127
Width: 1064
Flags: HMW
Back
1003.52 -49.1523 m 25
 1003.52 1478.66 l 25
 1003.52 -49.1523 l 25
143.36 1474.56 m 25
 143.36 -53.248 l 25
430.08 1466.37 m 25
 430.08 -61.4404 l 25
286.72 -69.6318 m 25
 286.72 1458.18 l 25
 286.72 -69.6318 l 25
573.44 1470.46 m 25
 573.44 -57.3438 l 25
716.8 1466.37 m 25
 716.8 -61.4404 l 25
860.16 -49.1523 m 25
 860.16 1478.66 l 25
 860.16 -49.1523 l 25
EndSplineSet
Fore
281 0 m 9
 129 0 l 1
 438 1456 l 1
 590 1456 l 1
 471 892 l 17
 529 1004 662 1102 820 1102 c 0
 987.544 1102 1097.47 998.411 1097.47 765.318 c 0
 1097.47 700.686 1089.02 626.098 1071 541 c 2
 956 0 l 1
 805 0 l 0
 920 541 l 1
 933.215 603.839 940.538 663.622 940.538 717.428 c 0
 940.538 863.131 886.837 965 751 965 c 0
 565 965 444 768 396 540 c 0
 281 0 l 9
EndSplineSet
EndChar
StartChar: i
Encoding: 73 105 128
Width: 430
Flags: HMW
Back
143.36 1474.56 m 25
 143.36 -53.248 l 25
430.08 1466.37 m 25
 430.08 -61.4404 l 25
286.72 -69.6318 m 25
 286.72 1458.18 l 25
 286.72 -69.6318 l 25
573.44 1470.46 m 25
 573.44 -57.3438 l 25
716.8 1466.37 m 25
 716.8 -61.4404 l 25
860.16 -49.1523 m 25
 860.16 1478.66 l 25
 860.16 -49.1523 l 25
EndSplineSet
Fore
414 1333 m 0
 425 1384 477 1427 528 1427 c 0
 572.315 1427 604.023 1395.97 604.023 1353.96 c 0
 604.023 1347.69 605.413 1344.95 602 1333 c 0
 591 1282 539 1239 488 1239 c 0
 444 1239 412 1272 412 1314 c 0
 413 1320 413 1327 414 1333 c 0
378 1073 m 1
 529 1073 l 1
 301 0 l 1
 150 0 l 1
 378 1073 l 1
EndSplineSet
EndChar
StartChar: j
Encoding: 74 106 129
Width: 468
Flags: HMW
Back
188.416 114.688 m 4
 188.416 1052.67 l 5
 339.968 1052.67 l 5
 339.968 114.688 l 4
 479.232 114.688 l 5
 479.232 -20.4805 l 5
 339.968 -20.4805 l 5
 340.851 -155.648 l 4
 340.851 -323.584 159.744 -428.032 59.3896 -428.032 c 4
 -26.624 -428.032 -71.6797 -391.168 -118.784 -346.112 c 13
 -10.2402 -241.664 l 21
 12.2881 -270.336 30.7197 -292.863 90.1143 -292.863 c 5
 141.312 -292.863 187.478 -258.048 187.478 -196.608 c 4
 188.416 -20.4805 l 5
 -8.19238 -20.4805 l 5
 -8.19238 114.688 l 5
 188.416 114.688 l 4
143.36 1474.56 m 25
 143.36 -53.248 l 25
430.08 1466.37 m 25
 430.08 -61.4404 l 25
286.72 -69.6318 m 25
 286.72 1458.18 l 25
 286.72 -69.6318 l 25
573.44 1470.46 m 25
 573.44 -57.3438 l 25
716.8 1466.37 m 25
 716.8 -61.4404 l 25
860.16 -49.1523 m 25
 860.16 1478.66 l 25
 860.16 -49.1523 l 25
EndSplineSet
Fore
453 1333 m 0
 464 1384 516 1427 567 1427 c 0
 609.694 1427 643.277 1395.87 643.277 1352.81 c 0
 643.277 1346.44 642.544 1339.82 641 1333 c 0
 630 1282 578 1239 527 1239 c 0
 484 1239 451.011 1270.57 451.011 1314.12 c 0
 451.011 1320.2 451.653 1326.51 453 1333 c 0
-193 -346 m 9
 -64 -244 l 1
 -45 -266 -25 -293 24 -293 c 1
 92 -293 134 -254 152 -170 c 0
 188 0 l 1
 416 1073 l 1
 568 1073 l 0
 340 0 l 1
 310 -139 l 0
 263 -360 34 -428 -36 -428 c 1
 -126 -428 -161 -383 -193 -346 c 9
EndSplineSet
KernsSLIFO: 129 80 0 0
EndChar
StartChar: k
Encoding: 75 107 130
Width: 944
Flags: HMW
Back
143.36 1474.56 m 29
 143.36 -53.248 l 29
430.08 1466.37 m 29
 430.08 -61.4404 l 29
286.72 -69.6318 m 29
 286.72 1458.18 l 29
 286.72 -69.6318 l 29
573.44 1470.46 m 29
 573.44 -57.3438 l 29
716.8 1466.37 m 29
 716.8 -61.4404 l 29
860.16 -49.1523 m 29
 860.16 1478.66 l 29
 860.16 -49.1523 l 29
EndSplineSet
Fore
610 616 m 1
 940 0 l 1
 766 0 l 1
 496 512 l 1
 362 379 l 1
 281 0 l 1
 129 0 l 1
 438 1454 l 1
 590 1454 l 1
 405 582 l 17
 918 1073 l 1
 1092 1073 l 1
 610 616 l 1
EndSplineSet
EndChar
StartChar: l
Encoding: 76 108 131
Width: 430
Flags: HMW
Back
143.36 1474.56 m 29
 143.36 -53.248 l 29
430.08 1466.37 m 29
 430.08 -61.4404 l 29
286.72 -69.6318 m 29
 286.72 1458.18 l 29
 286.72 -69.6318 l 29
573.44 1470.46 m 29
 573.44 -57.3438 l 29
716.8 1466.37 m 29
 716.8 -61.4404 l 29
860.16 -49.1523 m 29
 860.16 1478.66 l 29
 860.16 -49.1523 l 29
EndSplineSet
Fore
345 207 m 2
 342.837 195.101 341.982 185.42 341.982 175.114 c 0
 341.982 123.478 382.717 102 442 102 c 1
 414 -29 l 1
 273 -29 186 9 185 134 c 0
 186 155 188 177 193 203 c 1
 459 1454 l 1
 610 1454 l 1
 345 207 l 2
EndSplineSet
EndChar
StartChar: braceleft
Encoding: 91 123 132
Width: 747
Flags: HMW
Fore
245 729 m 1
 533 815 523 1276 603 1401 c 1
 691 1526 822 1526 960 1530 c 1
 932 1395 l 1
 918 1397 903 1399 889 1399 c 0
 836 1399 760 1378 725 1339 c 1
 711 1321 700 1282 691 1237 c 0
 688 1223 685 1208 681 1192 c 0
 656 1071 567 770 458 729 c 1
 499 712 513 636 513 547 c 0
 513.023 544.461 513.034 541.912 513.034 539.353 c 0
 513.034 431.032 492.677 305.408 479 238 c 0
 469 195 l 0
 462.516 161.655 456.891 133.458 456.891 112.793 c 0
 456.891 103.56 455.652 96.3703 459 88 c 0
 477 49 545 29 598 29 c 0
 612 29 628 31 642 33 c 1
 613 -102 l 1
 477 -98 346 -98 311 27 c 1
 309 34 308 43 308 53 c 0
 308 147 370 341 370 499 c 0
 370 607 341 698 245 729 c 1
EndSplineSet
EndChar
StartChar: bar
Encoding: 92 124 133
Width: 368
Flags: HMW
Fore
125 0 m 17
 434 1454 l 1
 577 1454 l 1
 268 0 l 9
 125 0 l 17
EndSplineSet
EndChar
StartChar: braceright
Encoding: 93 125 134
Width: 747
Flags: HMW
Fore
833 729 m 1
 546 647 550 158 470 33 c 1
 381 -92 250 -92 113 -96 c 1
 141 39 l 1
 155 37 169 35 183 35 c 0
 236 35 313 55 348 94 c 1
 362 113 372 152 383 201 c 0
 392 244 l 0
 419 371 512 692 620 729 c 1
 576 748 563 826 562 915 c 0
 563 1015 580 1128 593 1192 c 0
 597 1208 600 1223 603 1237 c 0
 610 1269 615 1299 615 1319 c 0
 615 1327 615 1334 613 1339 c 1
 594 1378 526 1399 473 1399 c 0
 459 1399 444 1397 430 1395 c 1
 458 1530 l 1
 594 1526 725 1526 761 1401 c 1
 762 1393 763 1384 763 1373 c 0
 763 1283.78 706.987 1109.07 706.987 961.867 c 0
 706.987 953.723 706.975 954.628 706.975 952.818 c 0
 706.975 850.047 736.616 762.439 833 729 c 1
EndSplineSet
EndChar
StartChar: asciitilde
Encoding: 94 126 135
Width: 735
Flags: HMW
Fore
225 764 m 17
 279 801 351 860 429 860 c 0
 527 860 559 709 663 709 c 1
 733 709 801 762 872 807 c 9
 841 662 l 17
 770 614 706 563 632 563 c 0
 517 563 478 715 396 715 c 0
 318 715 260 664 194 618 c 9
 225 764 l 17
EndSplineSet
EndChar
StartChar: cent
Encoding: 97 162 138
Width: 808
Flags: HMW
Fore
440 279 m 1
 305 296 209 393 208 556 c 0
 208 587 212 621 220 657 c 0
 265 872 457 963 588 993 c 1
 634 1208 l 1
 769 1208 l 1
 723 993 l 1
 799 973 854 928 898 881 c 9
 855 844 788 786 788 786 c 0
 765 815 723 866 618 866 c 1
 508 866 388 778 362 653 c 0
 356 628 354 604 354 582 c 0
 354 471 420 406 526 406 c 0
 608 406 685 438 758 512 c 9
 829 422 l 1
 774 356 679 305 574 274 c 1
 533 78 l 1
 398 78 l 1
 440 279 l 1
EndSplineSet
EndChar
StartChar: sterling
Encoding: 98 163 139
Width: 1120
Flags: HMW
Fore
438 596 m 1
 211 596 l 1
 239 731 l 1
 477 731 l 1
 577 1200 711 1466 908 1466 c 0
 1051 1466 1142 1376 1172 1169 c 1
 1027 1163 l 1
 1025 1245 985 1333 879 1333 c 0
 813 1333 708 1094 674 934 c 0
 667 903 654 842 647 809 c 0
 641 782 636 758 630 731 c 1
 989 731 l 1
 961 596 l 1
 596 596 l 1
 552 444 456 253 391 135 c 1
 895 135 l 1
 928 137 964 139 1027 207 c 1
 1083 92 l 1
 1020 20 937 12 854 0 c 1
 145 0 l 1
 206 131 379 380 438 596 c 1
EndSplineSet
EndChar
StartChar: currency
Encoding: 99 164 140
Width: 856
Flags: HMW
Fore
422 764 m 0
 420 751 418 738 418 726 c 0
 418 644 478 583 565 583 c 0
 665 583 762 664 783 764 c 0
 788.387 787.343 787.013 796.04 787.013 804.05 c 0
 787.013 885.015 728.273 945 642 945 c 0
 541 945 444 864 422 764 c 0
723 504 m 1
 665 469 599 449 533 449 c 0
 468 449 411 469 367 504 c 1
 340 375 l 1
 143 375 l 1
 184 571 l 1
 311 571 l 1
 291 608 280 651 280 698 c 0
 280 718 282 740 287 762 c 0
 302 831 337 895 385 946 c 1
 264 946 l 1
 306 1143 l 1
 503 1143 l 1
 477 1020 l 1
 535 1055 601 1075 666 1075 c 0
 732 1075 789 1055 833 1020 c 1
 859 1143 l 1
 1056 1143 l 1
 1014 946 l 1
 893 946 l 1
 911 912 920 872 921 828 c 0
 921 807 919 785 914 762 c 0
 899 690 860 625 807 571 c 1
 934 571 l 1
 893 375 l 1
 696 375 l 1
 723 504 l 1
EndSplineSet
EndChar
StartChar: yen
Encoding: 100 165 141
Width: 1110
Flags: HMW
Fore
616 682 m 1
 305 682 l 1
 334 817 l 1
 592 817 l 1
 371 1397 l 1
 526 1397 l 1
 730 831 l 1
 1194 1397 l 1
 1350 1397 l 1
 854 817 l 1
 1102 817 l 1
 1073 682 l 1
 768 682 l 1
 722 467 l 1
 1027 467 l 1
 999 332 l 1
 694 332 l 1
 623 0 l 1
 471 0 l 1
 542 332 l 1
 231 332 l 1
 259 467 l 1
 570 467 l 1
 616 682 l 1
EndSplineSet
EndChar
StartChar: brokenbar
Encoding: 101 166 142
Width: 305
Flags: HMW
Fore
370 645 m 17
 233 0 l 1
 90 0 l 1
 227 645 l 9
 370 645 l 17
257 788 m 17
 395 1434 l 1
 538 1434 l 1
 400 788 l 9
 257 788 l 17
EndSplineSet
EndChar
StartChar: section
Encoding: 102 167 143
Width: 686
Flags: HMW
Fore
390 958 m 1
 410 964 433 967 458 967 c 0
 637.415 967 790.005 826.915 790.005 623.988 c 0
 790.005 593.581 787.182 562.972 781 530 c 0
 733 307 548 104 372 104 c 0
 253 104 166 153 113 291 c 9
 265 301 l 17
 283 264 346 240 385 240 c 2
 389 240 l 2
 487 240 572 328 616 440 c 0
 616 441 616 442 616 442 c 0
 617 445 615 445 612 445 c 0
 600 445 567 432 549 432 c 0
 374 432 216 540 215 759 c 0
 216 794 220 832 228 872 c 0
 275 1090 445 1294 633 1294 c 0
 769 1294 820 1245 883 1130 c 1
 726 1114 l 0
 708 1141 654 1159 621 1159 c 2
 617 1159 l 2
 510 1159 438 1069 390 958 c 1
630 582 m 0
 633 596 634 611 634 625 c 0
 634 729 558 831 427 831 c 0
 404 831 387 827 369 817 c 1
 366 805 365 793 364 781 c 0
 364 674 463 567 572 567 c 0
 577 567 583 567 590 567 c 0
 608 567 627 569 630 582 c 0
EndSplineSet
EndChar
StartChar: dieresis
Encoding: 103 168 144
Width: 794
Flags: HMW
Fore
725 838 m 0
 736 889 788 932 839 932 c 0
 882.668 932 915.273 901.479 915.273 853.092 c 0
 915.273 847.708 913.809 842.854 913 838 c 0
 902 786 850 743 799 743 c 0
 754 743 723 776 723 819 c 0
 723 825 724 831 725 838 c 0
254 836 m 0
 265 887 317 930 368 930 c 0
 413 930 444 897 444 855 c 0
 444 848 443 842 442 836 c 0
 431 784 379 741 328 741 c 0
 282.923 741 251.608 772.889 251.608 821.842 c 0
 251.608 826.287 252.536 830.876 254 836 c 0
EndSplineSet
EndChar
StartChar: copyright
Encoding: 104 169 145
Width: 942
Flags: HMW
Fore
759 610 m 17
 714 573 652 543 594 543 c 0
 495 543 427 612 427 706 c 0
 427 720 428 735 431 750 c 0
 456 864 568 956 682 956 c 0
 740 956 791 934 820 897 c 9
 724 815 l 17
 709 831 685 844 658 844 c 0
 607 844 555 801 544 750 c 0
 543 743 543 737 542 731 c 0
 542 688 574 655 618 655 c 0
 645 655 679 666 700 682 c 9
 759 610 l 17
317 750 m 0
 312 726 310 704 310 682 c 0
 310 536 415 426 570 426 c 0
 748 426 922 571 960 750 c 0
 965 773 967 796 968 818 c 0
 968 963 862 1073 707 1073 c 0
 529 1073 355 928 317 750 c 0
200 750 m 0
 252 991 491 1188 732 1188 c 0
 943 1188 1087 1039 1087 841 c 0
 1086 811 1084 781 1077 750 c 0
 1026 508 787 311 545 311 c 0
 335 311 191 460 191 658 c 0
 190.897 661.096 190.847 664.192 190.847 667.29 c 0
 190.847 694.213 194.619 721.302 200 750 c 0
EndSplineSet
EndChar
StartChar: guillemotleft
Encoding: 106 171 146
Width: 872
Flags: HMW
Fore
891 1118 m 1
 1026 1118 l 1
 772 827 l 1
 902 537 l 1
 767 537 l 1
 637 827 l 1
 891 1118 l 1
490 1118 m 1
 625 1118 l 1
 371 827 l 1
 501 537 l 1
 366 537 l 1
 235 827 l 1
 490 1118 l 1
EndSplineSet
EndChar
StartChar: logicalnot
Encoding: 107 172 147
Width: 1026
Flags: HMW
Fore
1036 545 m 1
 900 545 l 1
 943 750 l 0
 313 750 l 1
 344 893 l 1
 1110 893 l 1
 1036 545 l 1
EndSplineSet
EndChar
StartChar: registered
Encoding: 109 174 149
Width: 1189
Flags: HMW
Fore
370 750 m 0
 363 716 360 685 359 656 c 0
 360 451 526 358 678 358 c 0
 856 358 1101 500 1154 750 c 0
 1161 780 1164 809 1164 836 c 0
 1164 1046 981 1143 845 1143 c 0
 667 1143 427 1016 370 750 c 0
253 750 m 0
 328 1102 647 1260 870 1260 c 0
 1110 1260 1283 1097 1284 861 c 0
 1283 825 1279 788 1271 750 c 0
 1207 446 909 242 653 242 c 0
 447 242 240 374 240 632 c 0
 240 669 244 708 253 750 c 0
678 801 m 1
 694 801 711 801 729 801 c 0
 807 801 885 807 897 866 c 1
 898 870 898 874 898 877 c 0
 898 928 811 932 735 932 c 0
 724 932 714 932 706 932 c 1
 678 801 l 1
641 1010 m 0
 723 1010 l 1
 861 1010 979 978 979 890 c 0
 979.268 888.124 979.392 886.177 979.392 884.158 c 0
 979.392 878.641 978.464 872.588 977 866 c 0
 956 766 878 750 809 735 c 1
 920 496 l 1
 820 496 l 1
 727 723 l 1
 661 721 l 1
 613 496 l 1
 531 496 l 1
 641 1010 l 0
EndSplineSet
EndChar
StartChar: macron
Encoding: 110 175 150
Width: 706
Flags: HMW
Fore
303 1130 m 1
 908 1130 l 1
 879 995 l 1
 274 995 l 1
 303 1130 l 1
EndSplineSet
EndChar
StartChar: degree
Encoding: 111 176 151
Width: 598
Flags: HMW
Fore
417 1178 m 0
 415 1166 414 1155 413 1144 c 0
 413 1077 460 1028 530 1028 c 0
 611 1028 688 1094 705 1178 c 0
 708.216 1189.79 709.016 1200.89 709.016 1213.09 c 0
 709.016 1279.04 662.269 1328 593 1328 c 0
 512 1328 435 1261 417 1178 c 0
299 1174 m 0
 329 1317 470 1432 615 1432 c 0
 742 1432 829 1344 829 1227 c 0
 829 1210 826 1192 823 1174 c 0
 792 1030 651 915 505 915 c 0
 379 915 293 1003 293 1120 c 0
 293 1137 295 1155 299 1174 c 0
EndSplineSet
EndChar
StartChar: acute
Encoding: 115 180 153
Width: 550
Flags: HMW
Fore
367 1232 m 1
 640 1546 l 1
 662 1569 686 1579 707 1579 c 0
 724 1579 738 1573 749 1562 c 0
 761 1552 768 1536 769 1518 c 0
 769 1514 768 1509 767 1505 c 0
 764 1490 756 1474 741 1458 c 1
 441 1168 l 1
 429 1156 414 1151 401 1151 c 0
 388 1151 376 1155 367 1162 c 0
 359 1170 352 1182 352 1196 c 0
 352 1199 353 1202 353 1206 c 0
 355 1214 359 1223 367 1232 c 1
EndSplineSet
EndChar
StartChar: mu
Encoding: 116 181 154
Width: 1003
Flags: HMW
Fore
313 74 m 1
 213 -395 l 1
 70 -395 l 1
 339 872 l 1
 484 872 l 0
 387 414 l 0
 376 363 371 319 371 282 c 0
 371 159 428 111 520 111 c 1
 679 111 789 291 815 414 c 0
 912 872 l 9
 1055 872 l 1
 870 0 l 1
 727 0 l 1
 748 98 l 17
 673 25 580 -27 500 -27 c 0
 377 -27 348 29 313 74 c 1
EndSplineSet
EndChar
StartChar: paragraph
Encoding: 117 182 155
Width: 1150
Flags: HMW
Fore
913 1260 m 1
 804 748 l 1
 839 748 982 739 1019 739 c 1
 1132 1272 l 1
 1097 1272 950 1260 913 1260 c 1
763 1227 m 1
 648 1192 505 1135 475 995 c 1
 472 977 470 961 470 946 c 0
 470 831 574 799 667 774 c 1
 763 1227 l 1
674 135 m 1
 891 135 l 1
 992 612 l 1
 955 612 814 623 777 623 c 1
 674 135 l 1
502 0 m 1
 639 643 l 1
 458 684 323 745 323 912 c 0
 323 938 326 965 332 995 c 0
 390 1266 754 1397 1114 1397 c 1
 1311 1397 l 0
 1014 0 l 1
 502 0 l 1
EndSplineSet
EndChar
StartChar: cedilla
Encoding: 119 184 157
Width: 473
Flags: HMW
Fore
77 -190 m 1
 111 -168 185 -123 193 -86 c 0
 194 -81 194 -76 194 -71 c 0
 194 -45 179 -21 160 18 c 0
 301 74 l 0
 329 40 352 -6 352 -60 c 0
 352 -72 351 -85 348 -98 c 0
 325 -209 172 -270 93 -315 c 1
 77 -190 l 1
EndSplineSet
EndChar
StartChar: guillemotright
Encoding: 122 187 158
Width: 933
Flags: HMW
Fore
471 1118 m 1
 602 827 l 1
 347 537 l 1
 212 537 l 1
 467 827 l 1
 336 1118 l 1
 471 1118 l 1
873 1118 m 1
 1003 827 l 1
 749 537 l 1
 614 537 l 1
 868 827 l 1
 738 1118 l 1
 873 1118 l 1
EndSplineSet
EndChar
StartChar: AE
Encoding: 133 198 166
Width: 1388
Flags: HMW
Fore
922 645 m 1
 658 645 l 0
 262 0 l 0
 83 0 l 1
 983 1456 l 1
 1692 1456 l 1
 1661 1307 l 0
 1219 1307 l 0
 1108 788 l 1
 1550 788 l 1
 1519 641 l 0
 1077 641 l 0
 972 147 l 0
 1414 147 l 1
 1383 0 l 1
 785 0 l 1
 922 645 l 1
1046 1237 m 1
 1062 1311 l 1
 748 788 l 1
 952 788 l 1
 1046 1237 l 1
EndSplineSet
EndChar
StartChar: Eth
Encoding: 143 208 176
Width: 3969
Flags: HMW
Fore
467 662 m 1
 285 662 l 1
 315 803 l 1
 497 803 l 1
 635 1456 l 1
 1016 1456 l 1
 1318.11 1456 1488 1236.29 1488 930.692 c 0
 1488 864.658 1480.29 797.356 1465 726 c 0
 1379 319 1067 0 707 0 c 0
 481 0 l 1
 326 0 l 1
 467 662 l 1
624 662 m 1
 513 143 l 1
 737 143 l 1
 994 143 1235 379 1308 726 c 1
 1322 789 1328 848 1328 903 c 0
 1328 1152 1197 1312 986 1312 c 1
 762 1312 l 1
 654 803 l 1
 954 803 l 1
 924 662 l 1
 624 662 l 1
EndSplineSet
EndChar
StartChar: figuredash
Encoding: 191 8210 186
Width: 1087
Flags: HMW
Fore
314 676 m 1
 1082 676 l 1
 1053 541 l 1
 285 541 l 1
 314 676 l 1
EndSplineSet
EndChar
StartChar: endash
Encoding: 192 8211 187
Width: 1001
Flags: HMW
Fore
314 676 m 1
 1000 676 l 1
 971 541 l 1
 285 541 l 1
 314 676 l 1
EndSplineSet
EndChar
StartChar: emdash
Encoding: 193 8212 188
Width: 1290
Flags: HMW
Fore
294 676 m 1
 1303 676 l 1
 1274 541 l 1
 265 541 l 1
 294 676 l 1
EndSplineSet
EndChar
